<svg width="20" height="20" viewBox="0 0 20 20" fill="none" xmlns="http://www.w3.org/2000/svg">
<path d="M15.9833 2.47758C14.3857 0.879884 12.2614 0 10.002 0C7.74251 0 5.61821 0.879884 4.02055 2.47758C2.42285 4.07532 1.54297 6.19954 1.54297 8.45896C1.54297 13.0298 5.86477 16.8315 8.18661 18.8739C8.50927 19.1578 8.78791 19.4029 9.0099 19.6102C9.28802 19.87 9.64502 20 10.0019 20C10.3589 20 10.7158 19.87 10.994 19.6102C11.216 19.4028 11.4946 19.1578 11.8173 18.8739C14.1391 16.8315 18.4609 13.0298 18.4609 8.45896C18.4609 6.19954 17.581 4.07532 15.9833 2.47758ZM11.0435 17.9943C10.7137 18.2844 10.429 18.5349 10.1942 18.7541C10.0864 18.8548 9.91748 18.8548 9.80959 18.7541C9.57486 18.5348 9.29009 18.2843 8.96037 17.9943C6.77755 16.0742 2.71446 12.5 2.71446 8.459C2.71446 4.44071 5.98356 1.1716 10.0019 1.1716C14.0202 1.1716 17.2893 4.44071 17.2893 8.459C17.2893 12.5 13.2263 16.0742 11.0435 17.9943Z" fill="black"/>
<path d="M10.0012 4.41211C7.94571 4.41211 6.27344 6.08434 6.27344 8.13985C6.27344 10.1954 7.94571 11.8676 10.0012 11.8676C12.0567 11.8676 13.729 10.1954 13.729 8.13985C13.729 6.08434 12.0567 4.41211 10.0012 4.41211ZM10.0012 10.696C8.59172 10.696 7.445 9.54927 7.445 8.13981C7.445 6.73036 8.59172 5.58364 10.0012 5.58364C11.4107 5.58364 12.5574 6.73036 12.5574 8.13981C12.5574 9.54927 11.4107 10.696 10.0012 10.696Z" fill="black"/>
</svg>
