<svg width="27" height="27" viewBox="0 0 27 27" fill="none" xmlns="http://www.w3.org/2000/svg">
<path d="M24.3547 18.7582C24.2654 18.6202 24.1204 18.5282 23.9575 18.5062C21.8154 18.2264 20.3057 16.263 20.5855 14.1209C20.7832 12.6078 21.8427 11.3478 23.2995 10.8934C23.5953 10.7985 23.7583 10.4819 23.6635 10.186C23.6487 10.14 23.6281 10.096 23.6021 10.0552C22.6191 8.28113 20.8712 7.06102 18.867 6.75C17.8571 6.7982 16.8618 7.0114 15.9207 7.38112C15.2448 7.65312 14.5311 7.81971 13.8046 7.87497C13.078 7.81971 12.3643 7.65312 11.6885 7.38112C10.7474 7.0114 9.75207 6.7982 8.74211 6.75C6.64177 6.75 2.55469 9.72783 2.55469 15.1874C2.55469 20.3758 6.33913 26.9998 9.30462 26.9998C10.4361 27.0099 11.554 26.7524 12.5671 26.2483C12.9486 26.0379 13.3704 25.9106 13.8046 25.8748C14.2388 25.9106 14.6606 26.0379 15.0421 26.2483C16.0552 26.7524 17.1731 27.0099 18.3046 26.9998C20.6558 26.9998 23.3097 22.9633 24.4212 19.2228C24.4677 19.0657 24.4434 18.896 24.3547 18.7582Z" fill="#37474F"/>
<path d="M13.2421 6.74993C16.6578 6.74619 19.4259 3.97819 19.4296 0.562512C19.4296 0.251857 19.1778 0 18.8671 0C15.4514 0.0037441 12.6834 2.77174 12.6797 6.18742C12.6796 6.49808 12.9315 6.74993 13.2421 6.74993Z" fill="#37474F"/>
</svg>
