<svg width="80" height="80" viewBox="0 0 80 80" fill="none" xmlns="http://www.w3.org/2000/svg">
<path d="M5 33.75C5.33152 33.75 5.64946 33.6183 5.88388 33.3839C6.1183 33.1495 6.25 32.8315 6.25 32.5V12.5C6.25195 10.843 6.91106 9.25442 8.08274 8.08274C9.25442 6.91106 10.843 6.25195 12.5 6.25H43.75V23.2324L37.1338 16.6163C37.0177 16.5001 36.88 16.408 36.7283 16.3452C36.5767 16.2823 36.4141 16.25 36.25 16.25C36.0859 16.25 35.9233 16.2823 35.7717 16.3452C35.62 16.408 35.4823 16.5001 35.3662 16.6163L28.75 23.2324V12.5C28.75 12.1685 28.6183 11.8505 28.3839 11.6161C28.1495 11.3817 27.8315 11.25 27.5 11.25C27.1685 11.25 26.8505 11.3817 26.6161 11.6161C26.3817 11.8505 26.25 12.1685 26.25 12.5V26.25C26.2501 26.4972 26.3234 26.7388 26.4607 26.9443C26.5981 27.1498 26.7933 27.31 27.0217 27.4046C27.2501 27.4992 27.5013 27.5239 27.7438 27.4757C27.9862 27.4275 28.2089 27.3085 28.3838 27.1338L36.25 19.2676L44.1162 27.1338C44.2911 27.3085 44.5138 27.4275 44.7562 27.4757C44.9987 27.5239 45.2499 27.4992 45.4783 27.4046C45.7067 27.31 45.9019 27.1498 46.0393 26.9443C46.1766 26.7388 46.2499 26.4972 46.25 26.25V6.25H60C61.657 6.25195 63.2456 6.91106 64.4173 8.08274C65.5889 9.25442 66.248 10.843 66.25 12.5V38.75C66.25 39.0815 66.3817 39.3995 66.6161 39.6339C66.8505 39.8683 67.1685 40 67.5 40C67.8315 40 68.1495 39.8683 68.3839 39.6339C68.6183 39.3995 68.75 39.0815 68.75 38.75V12.5C68.7473 10.1802 67.8246 7.95614 66.1842 6.31578C64.5439 4.67541 62.3198 3.75268 60 3.75H12.5C10.1802 3.75268 7.95614 4.67541 6.31578 6.31578C4.67541 7.95614 3.75268 10.1802 3.75 12.5V32.5C3.75 32.8315 3.8817 33.1495 4.11612 33.3839C4.35054 33.6183 4.66848 33.75 5 33.75Z" fill="white"/>
<path d="M43.75 73.75H12.5C10.843 73.748 9.25442 73.0889 8.08274 71.9173C6.91106 70.7456 6.25195 69.157 6.25 67.5V40C6.25 39.6685 6.1183 39.3505 5.88388 39.1161C5.64946 38.8817 5.33152 38.75 5 38.75C4.66848 38.75 4.35054 38.8817 4.11612 39.1161C3.8817 39.3505 3.75 39.6685 3.75 40V67.5C3.75268 69.8198 4.67541 72.0439 6.31578 73.6842C7.95614 75.3246 10.1802 76.2473 12.5 76.25H43.75C44.0815 76.25 44.3995 76.1183 44.6339 75.8839C44.8683 75.6495 45 75.3315 45 75C45 74.6685 44.8683 74.3505 44.6339 74.1161C44.3995 73.8817 44.0815 73.75 43.75 73.75Z" fill="white"/>
<path d="M25 56.25H15C14.6685 56.25 14.3505 56.3817 14.1161 56.6161C13.8817 56.8505 13.75 57.1685 13.75 57.5C13.75 57.8315 13.8817 58.1495 14.1161 58.3839C14.3505 58.6183 14.6685 58.75 15 58.75H25C25.3315 58.75 25.6495 58.6183 25.8839 58.3839C26.1183 58.1495 26.25 57.8315 26.25 57.5C26.25 57.1685 26.1183 56.8505 25.8839 56.6161C25.6495 56.3817 25.3315 56.25 25 56.25Z" fill="white"/>
<path d="M25 63.75H15C14.6685 63.75 14.3505 63.8817 14.1161 64.1161C13.8817 64.3505 13.75 64.6685 13.75 65C13.75 65.3315 13.8817 65.6495 14.1161 65.8839C14.3505 66.1183 14.6685 66.25 15 66.25H25C25.3315 66.25 25.6495 66.1183 25.8839 65.8839C26.1183 65.6495 26.25 65.3315 26.25 65C26.25 64.6685 26.1183 64.3505 25.8839 64.1161C25.6495 63.8817 25.3315 63.75 25 63.75Z" fill="white"/>
<path d="M66.6165 55.3665L58.7503 63.2326L54.634 59.1165C54.3983 58.8888 54.0825 58.7628 53.7548 58.7657C53.427 58.7685 53.1135 58.9 52.8817 59.1317C52.65 59.3635 52.5185 59.677 52.5157 60.0048C52.5128 60.3325 52.6388 60.6483 52.8665 60.884L57.8665 65.884C57.9825 66.0001 58.1203 66.0922 58.272 66.1551C58.4236 66.2179 58.5861 66.2503 58.7503 66.2503C58.9144 66.2503 59.0769 66.2179 59.2286 66.1551C59.3802 66.0922 59.518 66.0001 59.634 65.884L68.384 57.134C68.6117 56.8983 68.7377 56.5825 68.7349 56.2548C68.732 55.927 68.6006 55.6135 68.3688 55.3817C68.137 55.15 67.8235 55.0185 67.4958 55.0157C67.168 55.0128 66.8523 55.1388 66.6165 55.3665Z" fill="white"/>
<path d="M60 43.75C56.7861 43.75 53.6443 44.703 50.972 46.4886C48.2997 48.2742 46.2169 50.8121 44.987 53.7814C43.757 56.7507 43.4352 60.018 44.0622 63.1702C44.6893 66.3224 46.2369 69.2179 48.5095 71.4905C50.7821 73.7631 53.6776 75.3108 56.8298 75.9378C59.982 76.5648 63.2493 76.243 66.2186 75.013C69.1879 73.7831 71.7258 71.7003 73.5114 69.028C75.297 66.3557 76.25 63.2139 76.25 60C76.2451 55.6917 74.5315 51.5613 71.4851 48.5149C68.4387 45.4685 64.3083 43.7549 60 43.75ZM60 73.75C57.2805 73.75 54.6221 72.9436 52.3609 71.4327C50.0997 69.9218 48.3374 67.7744 47.2967 65.2619C46.256 62.7494 45.9837 59.9847 46.5142 57.3175C47.0448 54.6503 48.3543 52.2003 50.2773 50.2773C52.2003 48.3543 54.6503 47.0447 57.3175 46.5142C59.9848 45.9837 62.7494 46.256 65.2619 47.2967C67.7744 48.3374 69.9218 50.0997 71.4327 52.3609C72.9436 54.6221 73.75 57.2805 73.75 60C73.7459 63.6455 72.2959 67.1404 69.7182 69.7182C67.1404 72.2959 63.6455 73.7459 60 73.75Z" fill="white"/>
</svg>
