<svg width="52" height="52" viewBox="0 0 52 52" fill="none" xmlns="http://www.w3.org/2000/svg">
<path d="M34.6136 31.1508L30.1448 27.7383C30.0614 27.6653 29.9639 27.6101 29.8583 27.5761C29.7527 27.5422 29.6413 27.5302 29.5309 27.5409C29.4205 27.5517 29.3134 27.5849 29.2164 27.6386C29.1193 27.6923 29.0343 27.7652 28.9665 27.853C28.8987 27.9408 28.8496 28.0416 28.8222 28.1491C28.7948 28.2565 28.7898 28.3685 28.8073 28.478C28.8248 28.5875 28.8646 28.6923 28.9241 28.7859C28.9837 28.8795 29.0618 28.9598 29.1536 29.0221L31.7211 30.9883H18.1523C17.9369 30.9883 17.7302 31.0739 17.5778 31.2263C17.4254 31.3787 17.3398 31.5854 17.3398 31.8008C17.3398 32.0163 17.4254 32.223 17.5778 32.3754C17.7302 32.5277 17.9369 32.6133 18.1523 32.6133H31.7211L29.1536 34.5796C28.9837 34.7113 28.8729 34.9049 28.8455 35.1181C28.8181 35.3313 28.8763 35.5467 29.0073 35.7171C29.0697 35.805 29.1496 35.879 29.2419 35.9345C29.3343 35.9899 29.4372 36.0257 29.5441 36.0394C29.6509 36.0532 29.7595 36.0446 29.8629 36.0143C29.9663 35.984 30.0623 35.9326 30.1448 35.8633L34.6136 32.4996C34.7106 32.4214 34.7887 32.3224 34.8422 32.2099C34.8957 32.0973 34.923 31.9742 34.9223 31.8496C34.9281 31.7172 34.9032 31.5853 34.8497 31.4641C34.7961 31.3429 34.7153 31.2357 34.6136 31.1508Z" fill="white"/>
<path d="M39.1133 12.0415H35.8633V8.49902C35.8591 8.28484 35.7722 8.08058 35.6207 7.9291C35.4692 7.77762 35.265 7.69068 35.0508 7.68652C34.8353 7.68652 34.6286 7.77213 34.4763 7.9245C34.3239 8.07687 34.2383 8.28354 34.2383 8.49902V12.0415H17.517V8.49902C17.517 8.28354 17.4314 8.07687 17.2791 7.9245C17.1267 7.77213 16.92 7.68652 16.7045 7.68652C16.489 7.68652 16.2824 7.77213 16.13 7.9245C15.9776 8.07687 15.892 8.28354 15.892 8.49902V12.0415H13.1295C11.5076 12.0458 9.9535 12.6932 8.80812 13.8416C7.66274 14.99 7.01953 16.5458 7.01953 18.1678V38.6103C7.02382 40.2294 7.66893 41.781 8.81385 42.926C9.95877 44.0709 11.5104 44.716 13.1295 44.7203H39.1295C40.7515 44.7203 42.3073 44.0771 43.4557 42.9317C44.6041 41.7863 45.2515 40.2322 45.2558 38.6103V18.1678C45.2558 17.3619 45.0968 16.5639 44.7879 15.8196C44.479 15.0753 44.0263 14.3992 43.4557 13.8301C42.8851 13.261 42.2078 12.8101 41.4627 12.5032C40.7175 12.1963 39.9192 12.0394 39.1133 12.0415ZM39.1133 43.0953H13.1133C11.9251 43.091 10.7868 42.6171 9.94664 41.7769C9.10646 40.9367 8.63256 39.7985 8.62828 38.6103V22.0353H13.3083C13.5238 22.0353 13.7304 21.9497 13.8828 21.7973C14.0352 21.6449 14.1208 21.4383 14.1208 21.2228C14.1208 21.0073 14.0352 20.8006 13.8828 20.6482C13.7304 20.4959 13.5238 20.4103 13.3083 20.4103H8.64453V18.1678C8.64452 16.9768 9.11653 15.8343 9.95717 14.9906C10.7978 14.147 11.9385 13.6708 13.1295 13.6665H15.892V15.909C15.892 16.1245 15.9776 16.3312 16.13 16.4835C16.2824 16.6359 16.489 16.7215 16.7045 16.7215C16.92 16.7215 17.1267 16.6359 17.2791 16.4835C17.4314 16.3312 17.517 16.1245 17.517 15.909V13.6665H34.287V15.909C34.287 16.1245 34.3726 16.3312 34.525 16.4835C34.6774 16.6359 34.884 16.7215 35.0995 16.7215C35.315 16.7215 35.5217 16.6359 35.6741 16.4835C35.8264 16.3312 35.912 16.1245 35.912 15.909V13.6665H39.162C40.3558 13.6665 41.5007 14.1408 42.3449 14.9849C43.189 15.8291 43.6633 16.974 43.6633 18.1678V20.4103H16.2495C16.034 20.4103 15.8274 20.4959 15.675 20.6482C15.5226 20.8006 15.437 21.0073 15.437 21.2228C15.437 21.4383 15.5226 21.6449 15.675 21.7973C15.8274 21.9497 16.034 22.0353 16.2495 22.0353H43.5495V38.6103C43.5454 39.7901 43.0782 40.9211 42.2485 41.7599C41.4188 42.5987 40.293 43.0782 39.1133 43.0953Z" fill="white"/>
</svg>
