<svg width="20" height="20" viewBox="0 0 20 20" fill="none" xmlns="http://www.w3.org/2000/svg">
<path d="M13.9425 11.9464V3.22266C13.9425 2.18891 13.1012 1.34766 12.0675 1.34766H3.34375C2.31 1.34766 1.46875 2.18891 1.46875 3.22266V11.9464C1.46875 12.9802 2.31 13.8214 3.34375 13.8214H12.0675C13.1012 13.8214 13.9425 12.9802 13.9425 11.9464ZM2.71875 11.9464V3.22266C2.71875 2.87807 2.99917 2.59766 3.34375 2.59766H12.0675C12.4121 2.59766 12.6925 2.87807 12.6925 3.22266V11.9464C12.6925 12.291 12.4121 12.5714 12.0675 12.5714H3.34375C2.99917 12.5714 2.71875 12.291 2.71875 11.9464ZM16.6579 6.17807H15.1388C14.7938 6.17807 14.5138 6.45766 14.5138 6.80307C14.5138 7.14849 14.7938 7.42807 15.1388 7.42807H16.6579C17.0025 7.42807 17.2829 7.70849 17.2829 8.05307V16.7768C17.2829 17.1214 17.0025 17.4018 16.6579 17.4018H7.93458C7.59 17.4018 7.30958 17.1214 7.30958 16.7768V15.0489C7.30958 14.7039 7.03 14.4239 6.68458 14.4239C6.33917 14.4239 6.05958 14.7039 6.05958 15.0489V16.7768C6.05958 17.8106 6.90083 18.6518 7.93458 18.6518H16.6579C17.6917 18.6518 18.5329 17.8106 18.5329 16.7768V8.05307C18.5329 7.01932 17.6917 6.17807 16.6579 6.17807Z" fill="black"/>
</svg>
