<svg width="48" height="48" viewBox="0 0 48 48" fill="none" xmlns="http://www.w3.org/2000/svg">
<g clip-path="url(#clip0_373_53)">
<path d="M44.1682 3.43622H37.3479V1.125C37.3479 0.826631 37.2294 0.540483 37.0184 0.329505C36.8075 0.118526 36.5213 0 36.2229 0C35.9246 0 35.6384 0.118526 35.4274 0.329505C35.2165 0.540483 35.0979 0.826631 35.0979 1.125V3.43622H25.125V1.125C25.125 0.826631 25.0065 0.540483 24.7955 0.329505C24.5845 0.118526 24.2984 0 24 0C23.7016 0 23.4155 0.118526 23.2045 0.329505C22.9935 0.540483 22.875 0.826631 22.875 1.125V3.43622H12.9021V1.125C12.9021 0.826631 12.7835 0.540483 12.5726 0.329505C12.3616 0.118526 12.0754 0 11.7771 0C11.4787 0 11.1925 0.118526 10.9816 0.329505C10.7706 0.540483 10.6521 0.826631 10.6521 1.125V3.43622H3.83184C2.81593 3.43738 1.84197 3.84147 1.12361 4.55983C0.405252 5.27819 0.00116619 6.25215 0 7.26806L0 44.1681C0.00114138 45.184 0.405216 46.158 1.12358 46.8764C1.84194 47.5947 2.81592 47.9988 3.83184 48H44.1682C45.1841 47.9988 46.158 47.5947 46.8764 46.8764C47.5947 46.158 47.9988 45.1841 48 44.1682V7.26806C47.9988 6.25215 47.5947 5.27819 46.8764 4.55983C46.158 3.84147 45.1841 3.43738 44.1682 3.43622ZM3.83184 5.68622H10.6521V7.99744C10.6521 8.29581 10.7706 8.58195 10.9816 8.79293C11.1925 9.00391 11.4787 9.12244 11.7771 9.12244C12.0754 9.12244 12.3616 9.00391 12.5726 8.79293C12.7835 8.58195 12.9021 8.29581 12.9021 7.99744V5.68622H22.875V7.99744C22.875 8.29581 22.9935 8.58195 23.2045 8.79293C23.4155 9.00391 23.7016 9.12244 24 9.12244C24.2984 9.12244 24.5845 9.00391 24.7955 8.79293C25.0065 8.58195 25.125 8.29581 25.125 7.99744V5.68622H35.0979V7.99744C35.0979 8.29581 35.2165 8.58195 35.4274 8.79293C35.6384 9.00391 35.9246 9.12244 36.2229 9.12244C36.5213 9.12244 36.8075 9.00391 37.0184 8.79293C37.2294 8.58195 37.3479 8.29581 37.3479 7.99744V5.68622H44.1682C44.5875 5.68672 44.9896 5.85353 45.2861 6.15008C45.5827 6.44662 45.7495 6.84868 45.75 7.26806V14.8853H2.25V7.26806C2.2505 6.84868 2.41731 6.44662 2.71386 6.15008C3.01041 5.85353 3.41247 5.68672 3.83184 5.68622ZM44.1682 45.75H3.83184C3.41246 45.7495 3.01038 45.5827 2.71383 45.2862C2.41728 44.9896 2.25047 44.5875 2.25 44.1682V17.1353H45.75V44.1682C45.7495 44.5875 45.5827 44.9896 45.2862 45.2862C44.9896 45.5827 44.5875 45.7495 44.1682 45.75ZM26.6266 23.6802V39.2052C26.6266 39.5036 26.5081 39.7897 26.2971 40.0007C26.0861 40.2117 25.8 40.3302 25.5016 40.3302C25.2032 40.3302 24.9171 40.2117 24.7061 40.0007C24.4951 39.7897 24.3766 39.5036 24.3766 39.2052V26.5911L23.331 27.7417C23.2321 27.8525 23.1121 27.9427 22.9782 28.007C22.8442 28.0712 22.6988 28.1083 22.5504 28.1161C22.402 28.1239 22.2536 28.1022 22.1136 28.0522C21.9737 28.0023 21.845 27.9252 21.735 27.8252C21.625 27.7253 21.5359 27.6046 21.4729 27.47C21.4098 27.3354 21.3741 27.1897 21.3676 27.0413C21.3612 26.8928 21.3843 26.7446 21.4355 26.6051C21.4867 26.4656 21.565 26.3376 21.6659 26.2285L24.669 22.9237C24.8217 22.7556 25.0217 22.6377 25.2427 22.5854C25.4637 22.5332 25.6953 22.549 25.9071 22.6309C26.119 22.7127 26.301 22.8568 26.4295 23.0441C26.5579 23.2314 26.6266 23.4531 26.6266 23.6802Z" fill="white"/>
</g>
<defs>
<clipPath id="clip0_373_53">
<rect width="48" height="48" fill="white"/>
</clipPath>
</defs>
</svg>
