<svg width="52" height="52" viewBox="0 0 52 52" fill="none" xmlns="http://www.w3.org/2000/svg">
<g clip-path="url(#clip0_373_46)">
<path d="M47.4918 16.3554L48.427 14.9011C49.2372 13.5513 49.4909 11.9394 49.1346 10.4059C48.7783 8.87241 47.8398 7.53751 46.5175 6.6832C45.1951 5.82889 43.5924 5.52208 42.048 5.82761C40.5036 6.13314 39.1385 7.02706 38.241 8.32052L37.2955 9.77739C36.8176 10.5183 36.5071 11.3546 36.3857 12.2278C36.2643 13.1011 36.3349 13.9904 36.5926 14.8335C36.2132 14.7363 35.8238 14.6831 35.4322 14.6749H35.3871C35.471 13.564 35.2562 12.4509 34.7651 11.4509C34.274 10.4509 33.5243 9.60054 32.5938 8.98785L20.5584 1.05005C19.181 0.143515 17.5033 -0.187337 15.8849 0.128413C14.2664 0.444163 12.8361 1.38139 11.9004 2.73919L3.69396 14.7859C3.22504 15.4737 2.89737 16.2478 2.72998 17.0633C2.56259 17.8788 2.5588 18.7194 2.71884 19.5363C2.87888 20.3533 3.19955 21.1303 3.66226 21.8224C4.12497 22.5144 4.7205 23.1077 5.4143 23.5678L17.4506 31.503C18.4723 32.1793 19.6711 32.5387 20.8964 32.5361C21.5435 32.5326 22.1863 32.4312 22.8031 32.2353L21.0819 36.8555C20.87 37.4298 20.5766 37.9706 20.2109 38.4615L14.6642 45.9434C14.3319 46.3101 14.0784 46.7412 13.9194 47.2099C13.7604 47.6785 13.6994 48.1749 13.74 48.6681C13.7806 49.1614 13.9221 49.641 14.1556 50.0774C14.3891 50.5137 14.7097 50.8975 15.0976 51.2049C15.8308 51.7662 16.7469 52.0339 17.6669 51.9559C18.587 51.8778 19.4449 51.4596 20.0731 50.7829C20.093 50.7603 20.1104 50.7378 20.1286 50.7144L24.7141 44.3522C25.3988 43.3954 26.0024 42.3831 26.5185 41.3258L29.2121 35.8129L31.7852 39.6419C31.8845 39.792 31.9374 39.968 31.9374 40.148C31.9374 40.328 31.8845 40.504 31.7852 40.6541L28.127 46.7468C27.6626 47.5175 27.5166 48.4388 27.7202 49.3152C27.9237 50.1917 28.4607 50.9544 29.2173 51.4415C29.7757 51.8084 30.4298 52.0028 31.098 52.0005C31.6965 52.0036 32.2855 51.851 32.8072 51.5578C33.329 51.2645 33.7655 50.8407 34.0741 50.3279L38.6969 42.7168C39.2151 41.917 39.4918 40.9849 39.494 40.0319C39.4961 39.0789 39.2236 38.1456 38.709 37.3435L34.7813 31.2196L41.0646 21.4939C41.5271 20.7775 41.7054 19.9142 41.5647 19.0733C41.834 19.1108 42.1057 19.1299 42.3776 19.1305C43.3942 19.1329 44.3952 18.8802 45.2887 18.3953C46.1823 17.9105 46.9398 17.209 47.4918 16.3554ZM38.7541 10.7221L39.6988 9.26692C40.164 8.5482 40.8317 7.9834 41.6176 7.64378C42.4035 7.30416 43.2724 7.20496 44.1146 7.35868C44.9568 7.5124 45.7346 7.91216 46.3499 8.50752C46.9651 9.10287 47.3902 9.86713 47.5716 10.7039C47.6925 11.2599 47.7017 11.8344 47.5986 12.3939C47.4955 12.9535 47.2822 13.487 46.971 13.9634L46.0358 15.4185C45.4114 16.3846 44.4289 17.0632 43.3044 17.3053C42.1799 17.5475 41.0052 17.3333 40.0385 16.7099C39.075 16.0844 38.3986 15.1028 38.1572 13.9797C37.9158 12.8567 38.1292 11.6838 38.7506 10.7177L38.7541 10.7221ZM18.4065 30.0574L6.37023 22.1213C5.8677 21.788 5.43636 21.3582 5.10125 20.8569C4.76613 20.3556 4.53391 19.7927 4.41805 19.2009C4.3022 18.6092 4.30501 18.0003 4.42634 17.4096C4.54767 16.8189 4.78509 16.2582 5.12483 15.76L13.3322 3.71332C14.0096 2.72988 15.0455 2.05119 16.2176 1.82289C17.3897 1.59459 18.6047 1.83487 19.6016 2.49219L31.6414 10.43C32.3313 10.8839 32.8835 11.5184 33.2377 12.2645C33.592 13.0105 33.7347 13.8395 33.6503 14.6611C31.7844 14.6611 29.4166 14.6793 28.1149 14.7581C27.0808 14.8144 26.1099 15.274 25.4109 16.0382L19.8729 21.6672C19.3231 22.2701 19.0323 23.0651 19.0635 23.8805C19.0946 24.6959 19.4451 25.4664 20.0393 26.0257C20.1794 26.1542 20.3305 26.2702 20.4908 26.3723C21.0895 26.7626 21.8045 26.9343 22.5151 26.8583C23.2256 26.7824 23.8882 26.4634 24.3908 25.9555L29.271 21.3257C29.3352 21.258 29.4136 21.2053 29.5004 21.1713C29.5873 21.1373 29.6806 21.1229 29.7737 21.129H29.9141L24.6118 28.9056C23.9259 29.861 22.8971 30.5143 21.7407 30.729C20.5843 30.9436 19.3896 30.703 18.4065 30.0574ZM39.6104 20.5535L33.0185 30.7438C32.9284 30.8837 32.8804 31.0466 32.8804 31.2131C32.8804 31.3795 32.9284 31.5425 33.0185 31.6824L37.247 38.276C37.5835 38.8017 37.7607 39.4135 37.7573 40.0377C37.754 40.6619 37.5701 41.2718 37.2279 41.7938L32.5895 49.4283C32.4348 49.6851 32.2161 49.8974 31.9549 50.0444C31.6936 50.1915 31.3986 50.2682 31.0988 50.2672C30.7673 50.2683 30.4428 50.1722 30.1654 49.9907C29.7855 49.7473 29.5154 49.3653 29.4126 48.9259C29.3099 48.4865 29.3825 48.0244 29.6151 47.6377L33.2551 41.5667C33.5345 41.1333 33.6799 40.6272 33.6733 40.1116C33.6667 39.596 33.5083 39.0938 33.2178 38.6677L29.8118 33.5995C29.7326 33.4814 29.6256 33.3846 29.5001 33.3176C29.3747 33.2507 29.2347 33.2156 29.0925 33.2155H29.0336C28.8817 33.226 28.7352 33.2763 28.6089 33.3613C28.4827 33.4464 28.381 33.5632 28.3142 33.7L24.9602 40.5631C24.4859 41.5322 23.9313 42.4599 23.3023 43.3365L18.7506 49.6605C18.4209 50.0057 17.9747 50.2159 17.4986 50.2503C17.0226 50.2848 16.5507 50.141 16.1748 49.8469C15.9729 49.6886 15.806 49.4903 15.6845 49.2643C15.5631 49.0383 15.4898 48.7896 15.4694 48.5339C15.4489 48.262 15.4859 47.9889 15.578 47.7324C15.6702 47.4758 15.8153 47.2416 16.0041 47.0449L21.6002 39.5049C22.0647 38.88 22.4369 38.1914 22.7052 37.4605L24.6118 32.3367C24.8065 31.8124 25.0649 31.3141 25.3814 30.853L32.2454 20.7763C32.3336 20.6469 32.385 20.496 32.3944 20.3398C32.4037 20.1835 32.3705 20.0276 32.2983 19.8887C32.2261 19.7498 32.1177 19.633 31.9845 19.5507C31.8512 19.4685 31.6982 19.4239 31.5417 19.4217L29.7962 19.3957C29.4731 19.3889 29.1518 19.4467 28.8514 19.5658C28.5509 19.6848 28.2772 19.8627 28.0464 20.089L23.1671 24.717C22.9447 24.9461 22.6497 25.0908 22.3325 25.1266C22.0152 25.1623 21.6954 25.0868 21.4277 24.9129C21.3521 24.8644 21.2805 24.8099 21.2136 24.7499C20.9597 24.5049 20.8092 24.172 20.7931 23.8195C20.777 23.467 20.8965 23.1217 21.127 22.8545L26.6684 17.2255C27.0675 16.7855 27.624 16.5205 28.2172 16.488C29.8214 16.3909 33.3981 16.384 35.4105 16.4013C36.0514 16.4072 36.677 16.597 37.2132 16.9482L39.0921 18.1615C39.2834 18.284 39.4487 18.4431 39.5784 18.6296C39.7081 18.8161 39.7997 19.0263 39.8481 19.2483C39.8964 19.4703 39.9004 19.6996 39.8599 19.9231C39.8194 20.1467 39.7352 20.36 39.6121 20.5509L39.6104 20.5535Z" fill="white"/>
</g>
<defs>
<clipPath id="clip0_373_46">
<rect width="52" height="52" fill="white"/>
</clipPath>
</defs>
</svg>
