<svg width="80" height="80" viewBox="0 0 80 80" fill="none" xmlns="http://www.w3.org/2000/svg">
<path d="M47.3862 75.837C45.6954 75.837 44.1845 74.6012 42.717 73.4012C41.8204 72.667 40.5912 71.662 39.9979 71.662C39.4054 71.662 38.1762 72.667 37.2795 73.4012C35.672 74.7154 33.8487 76.2095 31.8412 75.7495C29.7695 75.2787 28.7554 73.1004 27.8604 71.1795C27.4137 70.2187 26.737 68.7662 26.2562 68.5337C25.7462 68.2845 24.1629 68.6687 23.1154 68.9204C21.0762 69.4112 18.7662 69.9645 17.1329 68.662C15.4937 67.3529 15.5229 64.9687 15.5504 62.8662C15.5637 61.7937 15.5837 60.1737 15.2387 59.7404C14.8979 59.3137 13.3204 58.9762 12.2762 58.7529C10.2112 58.3112 7.87286 57.8104 6.9562 55.9104C6.05286 54.0395 7.10703 51.9179 8.03536 50.0462C8.51786 49.0762 9.2462 47.6087 9.1187 47.0462C9.0037 46.542 7.7487 45.5679 6.9187 44.9229C5.23786 43.6195 3.33203 42.1395 3.33203 39.9995C3.33203 37.8595 5.23786 36.3804 6.91953 35.0754C7.74953 34.4312 9.00453 33.457 9.11953 32.952C9.24703 32.3895 8.5187 30.922 8.03703 29.9512C7.10786 28.0795 6.05453 25.9587 6.9587 24.0862C7.87536 22.187 10.2137 21.6862 12.2779 21.2445C13.322 21.0212 14.8995 20.6837 15.2395 20.2579C15.5862 19.8237 15.5662 18.2029 15.5529 17.1304C15.5262 15.0279 15.497 12.6445 17.1354 11.3354C18.7679 10.032 21.0795 10.587 23.1179 11.077C24.167 11.3287 25.7487 11.7095 26.2579 11.4645C26.7395 11.232 27.4154 9.78036 27.8629 8.81869C28.757 6.89702 29.7704 4.71952 31.842 4.24869C33.847 3.79369 35.6737 5.28202 37.2804 6.59702C38.1779 7.33119 39.407 8.33619 39.9995 8.33619C40.592 8.33619 41.8212 7.33119 42.7179 6.59786C44.3262 5.28202 46.1487 3.79036 48.157 4.24869C50.2279 4.71952 51.242 6.89786 52.137 8.81952C52.5845 9.78036 53.2604 11.2329 53.742 11.4654C54.2529 11.7112 55.8337 11.3295 56.8812 11.0779C58.9204 10.5879 61.2312 10.0329 62.8645 11.3362C64.5037 12.6454 64.4745 15.0287 64.447 17.132C64.4337 18.2045 64.4137 19.8254 64.7587 20.2579C65.0995 20.6837 66.677 21.022 67.7212 21.2454C69.7862 21.687 72.1245 22.187 73.0412 24.087C73.9445 25.9587 72.8904 28.0804 71.962 29.952C71.4795 30.9229 70.7512 32.3895 70.8787 32.952C70.9937 33.457 72.2487 34.4312 73.0787 35.0754C74.7595 36.3804 76.6654 37.8595 76.6654 39.9995C76.6654 42.1395 74.7595 43.6187 73.0779 44.9237C72.2479 45.5679 70.9929 46.5412 70.8779 47.0479C70.7504 47.6104 71.4787 49.077 71.9604 50.0479C72.8895 51.9195 73.9429 54.0404 73.0387 55.9129C72.122 57.812 69.7837 58.3129 67.7195 58.7537C66.6754 58.9779 65.0979 59.3154 64.757 59.7412C64.4112 60.1754 64.4312 61.7962 64.4445 62.8687C64.4712 64.9704 64.5004 67.3537 62.862 68.6629C61.2295 69.9662 58.9179 69.4104 56.8795 68.9212C55.8304 68.6695 54.2487 68.287 53.7395 68.5345C53.2579 68.7662 52.582 70.2187 52.1345 71.1795C51.2404 73.102 50.227 75.2795 48.1554 75.7504C47.8954 75.8095 47.6387 75.837 47.3862 75.837ZM25.7404 65.1245C26.4312 65.1245 27.0937 65.2362 27.7045 65.5304C29.257 66.2787 30.0837 68.0545 30.8829 69.772C31.2787 70.622 32.102 72.3904 32.5795 72.4987C33.0237 72.577 34.4737 71.3879 35.1687 70.8195C36.667 69.5945 38.2154 68.3279 39.9979 68.3279C41.7804 68.3279 43.3295 69.5954 44.827 70.8195C45.522 71.3879 46.9287 72.5537 47.4179 72.4987C47.8937 72.3895 48.7179 70.622 49.1129 69.772C49.9112 68.0545 50.7379 66.2804 52.2912 65.5304C53.8712 64.7679 55.7945 65.232 57.657 65.6795C58.5529 65.8945 60.4204 66.3437 60.7804 66.057C61.1462 65.7654 61.122 63.8362 61.1104 62.9095C61.0862 60.9995 61.0612 59.0254 62.1512 57.6604C63.2345 56.3037 65.1587 55.892 67.0204 55.4937C67.932 55.2987 69.8279 54.8929 70.0354 54.4637C70.2287 54.0612 69.3804 52.3512 68.9729 51.5295C68.1187 49.8087 67.2345 48.0287 67.6262 46.3087C68.0054 44.6404 69.5445 43.4454 71.032 42.2904C71.837 41.667 73.332 40.507 73.332 39.9995C73.332 39.492 71.837 38.332 71.0337 37.7079C69.5454 36.5529 68.0062 35.3587 67.627 33.6895C67.2362 31.9695 68.1204 30.1895 68.9745 28.4687C69.382 27.647 70.2312 25.9379 70.037 25.5345C69.8295 25.1045 67.9337 24.6995 67.0229 24.5045C65.1612 24.1062 63.2362 23.6945 62.1529 22.3387C61.0637 20.9745 61.0887 18.9995 61.1129 17.0904C61.1245 16.1637 61.1487 14.2337 60.7829 13.942C60.4245 13.6554 58.5562 14.1045 57.6587 14.3195C55.797 14.767 53.8737 15.2304 52.2929 14.4679C50.7404 13.7187 49.9137 11.9437 49.1145 10.227C48.7187 9.37702 47.8962 7.60869 47.4179 7.50036C46.9595 7.42119 45.5229 8.61119 44.8279 9.17869C43.3304 10.4045 41.782 11.6712 39.9995 11.6712C38.217 11.6712 36.6687 10.4037 35.1704 9.17869C34.4754 8.61036 33.0254 7.42619 32.5795 7.49952C32.1029 7.60786 31.2787 9.37619 30.8837 10.2262C30.0845 11.9429 29.2587 13.7179 27.7062 14.467C26.1262 15.2287 24.2029 14.767 22.3395 14.3187C21.4437 14.1029 19.5745 13.6545 19.2162 13.9404C18.8504 14.2329 18.8745 16.162 18.8862 17.0887C18.9104 18.9987 18.9354 20.9737 17.8454 22.337C16.762 23.6937 14.8379 24.1054 12.9762 24.5037C12.0645 24.6987 10.1687 25.1045 9.9612 25.5337C9.76786 25.9362 10.6162 27.6462 11.0237 28.4679C11.8779 30.1887 12.762 31.9687 12.3704 33.6887C11.9912 35.357 10.452 36.552 8.96453 37.707C8.16036 38.332 6.66536 39.492 6.66536 39.9995C6.66536 40.507 8.16037 41.6679 8.9637 42.2912C10.452 43.4462 11.9912 44.6395 12.3704 46.3087C12.7612 48.0287 11.877 49.8079 11.0229 51.5295C10.6154 52.3512 9.7662 54.0604 9.96037 54.4637C10.1679 54.8945 12.0637 55.2995 12.9754 55.4945C14.8362 55.8929 16.7612 56.3045 17.8445 57.6612C18.9337 59.0254 18.9087 60.9995 18.8845 62.9095C18.8729 63.8362 18.8487 65.7662 19.2145 66.0579C19.5729 66.3404 21.4412 65.8954 22.3387 65.6795C23.4795 65.4045 24.6454 65.1245 25.7404 65.1245ZM29.5104 52.8445L52.8437 29.5112C53.4945 28.8604 53.4945 27.8054 52.8437 27.1545C52.1929 26.5037 51.1379 26.5037 50.487 27.1545L27.1537 50.4879C26.5029 51.1387 26.5029 52.1937 27.1537 52.8445C27.4795 53.1704 27.9054 53.3329 28.332 53.3329C28.7587 53.3329 29.1845 53.1704 29.5104 52.8445ZM31.6654 37.4995C28.4495 37.4995 25.832 34.8829 25.832 31.6662C25.832 28.4495 28.4495 25.8329 31.6654 25.8329C34.8812 25.8329 37.4987 28.4495 37.4987 31.6662C37.4987 34.8829 34.8812 37.4995 31.6654 37.4995ZM31.6654 29.1662C30.287 29.1662 29.1654 30.2879 29.1654 31.6662C29.1654 33.0445 30.287 34.1662 31.6654 34.1662C33.0437 34.1662 34.1654 33.0445 34.1654 31.6662C34.1654 30.2879 33.0437 29.1662 31.6654 29.1662ZM48.332 54.1662C45.1162 54.1662 42.4987 51.5487 42.4987 48.3329C42.4987 45.117 45.1162 42.4995 48.332 42.4995C51.5479 42.4995 54.1654 45.117 54.1654 48.3329C54.1654 51.5487 51.5479 54.1662 48.332 54.1662ZM48.332 45.8329C46.9537 45.8329 45.832 46.9545 45.832 48.3329C45.832 49.7112 46.9537 50.8329 48.332 50.8329C49.7104 50.8329 50.832 49.7112 50.832 48.3329C50.832 46.9545 49.7104 45.8329 48.332 45.8329Z" fill="white"/>
</svg>
