<svg width="20" height="20" viewBox="0 0 20 20" fill="none" xmlns="http://www.w3.org/2000/svg">
<path d="M3.96406 15.6747C3.96406 15.6747 4.03073 15.6747 4.05573 15.6747L6.4974 15.4497C6.83906 15.4163 7.15573 15.2663 7.3974 15.0247L16.6141 5.80801C17.0474 5.37467 17.2891 4.79967 17.2891 4.19134C17.2891 3.58301 17.0474 3.00801 16.6141 2.57467L16.0224 1.98301C15.1557 1.11634 13.6474 1.11634 12.7807 1.98301L11.6057 3.15801L3.5724 11.1913C3.33073 11.433 3.18073 11.7497 3.15573 12.0913L2.93073 14.533C2.90573 14.8413 3.01406 15.1413 3.23073 15.3663C3.43073 15.5663 3.68906 15.6747 3.96406 15.6747ZM14.4057 2.55801C14.6724 2.55801 14.9391 2.65801 15.1391 2.86634L15.7307 3.45801C15.9307 3.65801 16.0391 3.91634 16.0391 4.19134C16.0391 4.46634 15.9307 4.73301 15.7307 4.92467L14.9974 5.65801L12.9391 3.59967L13.6724 2.86634C13.8724 2.66634 14.1391 2.55801 14.4057 2.55801ZM4.3974 12.208C4.3974 12.158 4.4224 12.1163 4.45573 12.083L12.0474 4.48301L14.1057 6.54134L6.51406 14.133C6.51406 14.133 6.43073 14.1913 6.38906 14.1913L4.1974 14.3913L4.3974 12.1997V12.208ZM18.9557 18.333C18.9557 18.6747 18.6724 18.958 18.3307 18.958H1.66406C1.3224 18.958 1.03906 18.6747 1.03906 18.333C1.03906 17.9913 1.3224 17.708 1.66406 17.708H18.3307C18.6724 17.708 18.9557 17.9913 18.9557 18.333Z" fill="#000F9F"/>
</svg>
