<svg width="20" height="16" viewBox="0 0 20 16" fill="none" xmlns="http://www.w3.org/2000/svg">
<path fill-rule="evenodd" clip-rule="evenodd" d="M18.0817 11.1941C18.0817 12.883 16.7079 14.2547 15.0211 14.2547H4.97984C3.29309 14.2547 1.91922 12.883 1.91922 11.1941V4.805C1.91922 4.24133 2.07355 3.71191 2.34145 3.25754L7.24098 8.15707C7.97398 8.89223 8.95559 9.2973 10.0015 9.2973C11.0453 9.2973 12.0269 8.89223 12.7599 8.15707L17.6595 3.25754C17.9274 3.71191 18.0817 4.24129 18.0817 4.805V11.1941H18.0817ZM15.0211 1.74441H4.97984C4.28328 1.74441 3.64027 1.98016 3.1259 2.37238L8.07473 7.32336C8.58699 7.83344 9.27067 8.11637 10.0015 8.11637C10.7302 8.11637 11.4139 7.83344 11.9262 7.32336L16.875 2.37238C16.3607 1.98016 15.7177 1.74441 15.0211 1.74441ZM15.0211 0.563477H4.97984C2.64152 0.563477 0.738281 2.46672 0.738281 4.80504V11.1942C0.738281 13.5346 2.64152 15.4357 4.97984 15.4357H15.0211C17.3594 15.4357 19.2627 13.5346 19.2627 11.1942V4.805C19.2627 2.46668 17.3594 0.563477 15.0211 0.563477Z" fill="black"/>
</svg>
