<svg width="26" height="26" viewBox="0 0 26 26" fill="none" xmlns="http://www.w3.org/2000/svg">
<path d="M10.5153 14.3429C10.4336 14.3429 8.721 14.3435 7.93112 14.3427C7.52448 14.3424 7.3794 14.1963 7.3794 13.7871C7.37888 12.7359 7.37862 11.6847 7.3794 10.6335C7.37966 10.2295 7.53306 10.0753 7.9345 10.075C8.72438 10.0745 10.4276 10.0748 10.5153 10.0748C10.5153 10.0028 10.515 8.48513 10.5153 7.78625C10.5158 6.75301 10.7001 5.76397 11.2251 4.85839C11.7625 3.93149 12.5446 3.29657 13.5469 2.92945C14.1888 2.69415 14.8552 2.60029 15.5364 2.59977C16.3887 2.59925 17.2409 2.60003 18.0935 2.60159C18.4598 2.60211 18.6223 2.76409 18.6231 3.13303C18.6247 4.12181 18.6247 5.11059 18.6231 6.09911C18.6226 6.47195 18.4668 6.62171 18.0922 6.62587C17.3936 6.63341 16.6944 6.62873 15.9966 6.65681C15.2917 6.65681 14.921 7.00105 14.921 7.73061C14.9041 8.50229 14.9139 9.27475 14.9139 10.0745C14.98 10.0745 16.9859 10.0743 17.9234 10.0745C18.3493 10.0745 18.4949 10.2209 18.4949 10.6491C18.4949 11.6946 18.4947 12.7403 18.4939 13.7858C18.4936 14.2077 18.3569 14.3424 17.9284 14.3427C16.9908 14.3432 14.9927 14.3429 14.9054 14.3429V22.8046C14.9054 23.2557 14.7634 23.3995 14.3183 23.3995C13.233 23.3995 12.1475 23.3998 11.0623 23.3995C10.6689 23.3995 10.5155 23.2466 10.5155 22.8533C10.5153 20.0975 10.5153 14.4397 10.5153 14.3429Z" fill="#3D6AD6"/>
</svg>
