<svg width="30" height="30" viewBox="0 0 30 30" fill="none" xmlns="http://www.w3.org/2000/svg">
<g clip-path="url(#clip0_390_225)">
<path d="M14.998 18.0762C16.697 18.0762 18.0742 16.6989 18.0742 15C18.0742 13.3011 16.697 11.9238 14.998 11.9238C13.2991 11.9238 11.9219 13.3011 11.9219 15C11.9219 16.6989 13.2991 18.0762 14.998 18.0762Z" fill="white"/>
<path d="M15 0.351562C6.9099 0.351562 0.351562 6.9099 0.351562 15C0.351562 23.0901 6.9099 29.6484 15 29.6484C23.0901 29.6484 29.6484 23.0901 29.6484 15C29.6484 6.9099 23.0901 0.351562 15 0.351562ZM24.0503 18.723C23.98 20.1157 23.5886 21.489 22.5737 22.4931C21.549 23.5068 20.1691 23.8845 18.7631 23.9541H11.237C9.83074 23.8845 8.45109 23.5071 7.42635 22.4931C6.41139 21.489 6.0201 20.1157 5.94979 18.723V11.277C6.0201 9.8843 6.41145 8.51098 7.42635 7.5068C8.45109 6.49312 9.83092 6.11543 11.237 6.04588H18.763C20.1693 6.11543 21.5489 6.49295 22.5737 7.5068C23.5886 8.51098 23.9799 9.8843 24.0502 11.277L24.0503 18.723Z" fill="white"/>
<path d="M18.6657 7.74278C16.8326 7.69251 13.1634 7.69251 11.3303 7.74278C10.3763 7.76897 9.29484 8.00646 8.61515 8.73243C7.90886 9.48706 7.64197 10.3988 7.6149 11.4187C7.56732 13.2089 7.6149 18.5819 7.6149 18.5819C7.64589 19.6018 7.90886 20.5136 8.61515 21.2682C9.29484 21.9944 10.3763 22.2317 11.3303 22.2579C13.1634 22.3081 16.8326 22.3081 18.6657 22.2579C19.6197 22.2317 20.7012 21.9942 21.3809 21.2682C22.0871 20.5136 22.354 19.6019 22.3811 18.5819V11.4187C22.354 10.3988 22.0871 9.48706 21.3809 8.73243C20.7009 8.00622 19.6195 7.76897 18.6657 7.74278ZM14.9978 19.7684C14.0547 19.7684 13.1329 19.4887 12.3488 18.9648C11.5647 18.4409 10.9535 17.6962 10.5926 16.825C10.2318 15.9537 10.1373 14.995 10.3213 14.0701C10.5053 13.1452 10.9594 12.2956 11.6262 11.6288C12.2931 10.962 13.1427 10.5079 14.0676 10.3239C14.9925 10.1399 15.9512 10.2343 16.8224 10.5952C17.6937 10.9561 18.4383 11.5672 18.9623 12.3513C19.4862 13.1354 19.7658 14.0573 19.7658 15.0003C19.7658 16.2649 19.2635 17.4777 18.3693 18.3719C17.4751 19.266 16.2623 19.7684 14.9978 19.7684ZM19.7861 11.2165C19.5975 11.2164 19.4132 11.1604 19.2564 11.0556C19.0996 10.9508 18.9774 10.8019 18.9053 10.6276C18.8331 10.4534 18.8143 10.2616 18.8511 10.0767C18.8879 9.89169 18.9787 9.72179 19.1121 9.58845C19.2455 9.45511 19.4154 9.36431 19.6004 9.32754C19.7854 9.29076 19.9771 9.30966 20.1513 9.38184C20.3256 9.45402 20.4745 9.57625 20.5793 9.73307C20.684 9.88988 20.74 10.0742 20.74 10.2628C20.74 10.3881 20.7153 10.5121 20.6673 10.6278C20.6194 10.7435 20.5491 10.8487 20.4606 10.9372C20.372 11.0258 20.2668 11.096 20.1511 11.1439C20.0354 11.1918 19.9114 11.2165 19.7861 11.2165Z" fill="white"/>
</g>
<defs>
<clipPath id="clip0_390_225">
<rect width="30" height="30" fill="white"/>
</clipPath>
</defs>
</svg>
