<svg width="20" height="21" viewBox="0 0 20 21" fill="none" xmlns="http://www.w3.org/2000/svg">
<g clip-path="url(#clip0_373_2337)">
<path d="M15.9833 2.97758C14.3857 1.37988 12.2614 0.5 10.002 0.5C7.74251 0.5 5.61821 1.37988 4.02055 2.97758C2.42285 4.57532 1.54297 6.69954 1.54297 8.95896C1.54297 13.5298 5.86477 17.3315 8.18661 19.3739C8.50927 19.6578 8.78791 19.9029 9.0099 20.1102C9.28802 20.37 9.64502 20.5 10.0019 20.5C10.3589 20.5 10.7158 20.37 10.994 20.1102C11.216 19.9028 11.4946 19.6578 11.8173 19.3739C14.1391 17.3315 18.4609 13.5298 18.4609 8.95896C18.4609 6.69954 17.581 4.57532 15.9833 2.97758ZM11.0435 18.4943C10.7137 18.7844 10.429 19.0349 10.1942 19.2541C10.0864 19.3548 9.91748 19.3548 9.80959 19.2541C9.57486 19.0348 9.29009 18.7843 8.96037 18.4943C6.77755 16.5742 2.71446 13 2.71446 8.959C2.71446 4.94071 5.98356 1.6716 10.0019 1.6716C14.0202 1.6716 17.2893 4.94071 17.2893 8.959C17.2893 13 13.2263 16.5742 11.0435 18.4943Z" fill="black"/>
<path d="M10.0012 4.91211C7.94571 4.91211 6.27344 6.58434 6.27344 8.63985C6.27344 10.6954 7.94571 12.3676 10.0012 12.3676C12.0567 12.3676 13.729 10.6954 13.729 8.63985C13.729 6.58434 12.0567 4.91211 10.0012 4.91211ZM10.0012 11.196C8.59172 11.196 7.445 10.0493 7.445 8.63981C7.445 7.23036 8.59172 6.08364 10.0012 6.08364C11.4107 6.08364 12.5574 7.23036 12.5574 8.63981C12.5574 10.0493 11.4107 11.196 10.0012 11.196Z" fill="black"/>
</g>
<defs>
<clipPath id="clip0_373_2337">
<rect width="20" height="20" fill="white" transform="translate(0 0.5)"/>
</clipPath>
</defs>
</svg>
