<svg width="115" height="67" viewBox="0 0 115 67" fill="none" xmlns="http://www.w3.org/2000/svg">
<path d="M18.0636 33.3743H72.9943C75.0495 27.8937 79.7952 15.1014 82.3362 7.77735C84.8772 0.453261 80.6546 -0.381287 78.2257 0.116951C52.1596 0.490629 0.0473294 1.01378 0.126914 0.116951C-1.06886 10.1315 6.47954 13.8808 10.4032 14.5036H66.6416L64.7732 19.7351H10.4032C8.31061 28.4044 14.6382 32.4401 18.0636 33.3743Z" fill="#CF132A"/>
<path d="M19.3703 38.6055H70.5642L65.7064 52.6184H53.7487C54.8074 49.8158 54.8323 44.1733 46.4619 44.0238C38.0915 43.8743 32.6359 49.6913 30.9543 52.6184C19.5945 52.3195 18.4984 43.1519 19.3703 38.6055Z" fill="#000F9F"/>
<path d="M104.571 14.877H84.953L70.5664 52.2448H75.6111C77.2303 49.6913 82.0383 44.3975 88.3161 43.6502C94.5939 42.9028 97.5335 49.0685 98.2186 52.2448C104.945 52.9921 107.125 50.4387 107.374 49.0685L111.297 38.4187C95.005 37.3724 94.7932 27.7689 96.7239 23.0979H114.474C113.278 19.959 107.374 16.3094 104.571 14.877Z" fill="#000F9F"/>
<ellipse cx="85.7532" cy="54.1049" rx="7.6604" ry="10.4918" transform="rotate(43.0629 85.7532 54.1049)" fill="#000F9F"/>
<ellipse cx="42.0345" cy="54.1049" rx="7.6604" ry="10.4918" transform="rotate(43.0629 42.0345 54.1049)" fill="#000F9F"/>
</svg>
