<svg width="23" height="24" viewBox="0 0 23 24" fill="none" xmlns="http://www.w3.org/2000/svg">
<path d="M22.4375 12.5C22.4375 15.4008 21.2852 18.1828 19.234 20.234C17.1828 22.2852 14.4008 23.4375 11.5 23.4375C8.59919 23.4375 5.8172 22.2852 3.76602 20.234C1.71484 18.1828 0.562497 15.4008 0.562497 12.5C0.55836 10.9891 0.853818 9.49242 1.43178 8.09645C2.00975 6.70048 2.85875 5.43296 3.92968 4.36719C3.99665 4.27563 4.08274 4.19975 4.18199 4.14483C4.28124 4.0899 4.39126 4.05725 4.5044 4.04914C4.61754 4.04102 4.73109 4.05764 4.83716 4.09785C4.94323 4.13805 5.03927 4.20086 5.11861 4.28193C5.19795 4.363 5.25869 4.46037 5.2966 4.56728C5.33451 4.67419 5.34869 4.78807 5.33815 4.90101C5.3276 5.01395 5.29259 5.12324 5.23554 5.22128C5.1785 5.31933 5.10079 5.40377 5.00781 5.46875C4.08569 6.39151 3.35602 7.48821 2.86115 8.69522C2.36628 9.90223 2.11605 11.1955 2.125 12.5C2.125 14.9864 3.11272 17.371 4.87087 19.1291C6.62902 20.8873 9.01359 21.875 11.5 21.875C13.9864 21.875 16.371 20.8873 18.1291 19.1291C19.8873 17.371 20.875 14.9864 20.875 12.5C20.8839 11.1955 20.6337 9.90223 20.1388 8.69522C19.644 7.48821 18.9143 6.39151 17.9922 5.46875C17.8603 5.32214 17.7888 5.13111 17.7919 4.93396C17.795 4.73682 17.8726 4.54814 18.009 4.40579C18.1454 4.26343 18.3307 4.17793 18.5275 4.16642C18.7243 4.15491 18.9182 4.21826 19.0703 4.34375C20.1441 5.4123 20.9947 6.68363 21.5727 8.08383C22.1508 9.48404 22.4447 10.9852 22.4375 12.5ZM11.5 14.0625C11.7072 14.0625 11.9059 13.9802 12.0524 13.8337C12.1989 13.6872 12.2812 13.4885 12.2812 13.2812V1.5625C12.2812 1.3553 12.1989 1.15659 12.0524 1.01007C11.9059 0.86356 11.7072 0.78125 11.5 0.78125C11.2928 0.78125 11.0941 0.86356 10.9476 1.01007C10.8011 1.15659 10.7187 1.3553 10.7187 1.5625V13.2812C10.7187 13.4885 10.8011 13.6872 10.9476 13.8337C11.0941 13.9802 11.2928 14.0625 11.5 14.0625Z" fill="black"/>
</svg>
