<svg width="52" height="52" viewBox="0 0 52 52" fill="none" xmlns="http://www.w3.org/2000/svg">
<g clip-path="url(#clip0_373_35)">
<path d="M27.625 24.375C29.7141 24.375 31.7562 23.7555 33.4932 22.5949C35.2302 21.4343 36.584 19.7846 37.3835 17.8546C38.1829 15.9246 38.3921 13.8008 37.9845 11.7519C37.577 9.70294 36.571 7.82088 35.0938 6.34369C33.6166 4.8665 31.7346 3.86052 29.6856 3.45296C27.6367 3.0454 25.513 3.25458 23.5829 4.05403C21.6529 4.85348 20.0032 6.2073 18.8426 7.94429C17.682 9.68129 17.0625 11.7234 17.0625 13.8125C17.0657 16.6129 18.1796 19.2976 20.1597 21.2778C22.1399 23.2579 24.8246 24.3718 27.625 24.375ZM27.625 4.87501C29.3927 4.87501 31.1206 5.39918 32.5904 6.38125C34.0602 7.36331 35.2057 8.75916 35.8822 10.3923C36.5586 12.0254 36.7356 13.8224 36.3908 15.5561C36.0459 17.2898 35.1947 18.8823 33.9448 20.1323C32.6948 21.3822 31.1023 22.2334 29.3686 22.5783C27.6349 22.9231 25.8379 22.7461 24.2048 22.0697C22.5717 21.3932 21.1758 20.2477 20.1937 18.7779C19.2117 17.3082 18.6875 15.5802 18.6875 13.8125C18.6903 11.443 19.6328 9.17133 21.3083 7.49583C22.9838 5.82032 25.2555 4.8778 27.625 4.87501Z" fill="white"/>
<path d="M26 16.25C26 16.0345 25.9144 15.8278 25.762 15.6755C25.6097 15.5231 25.403 15.4375 25.1875 15.4375C24.972 15.4375 24.7653 15.5231 24.613 15.6755C24.4606 15.8278 24.375 16.0345 24.375 16.25C24.3777 16.9684 24.6184 17.6657 25.0594 18.2329C25.5004 18.8 26.1169 19.205 26.8125 19.3846V20.3125C26.8125 20.528 26.8981 20.7347 27.0505 20.887C27.2028 21.0394 27.4095 21.125 27.625 21.125C27.8405 21.125 28.0472 21.0394 28.1995 20.887C28.3519 20.7347 28.4375 20.528 28.4375 20.3125V19.3846C29.1343 19.2073 29.7521 18.8028 30.1934 18.2352C30.6347 17.6675 30.8742 16.969 30.8742 16.25C30.8742 15.531 30.6347 14.8325 30.1934 14.2648C29.7521 13.6972 29.1343 13.2927 28.4375 13.1154V9.97587C28.6837 10.1174 28.8884 10.3211 29.031 10.5667C29.1736 10.8123 29.2491 11.091 29.25 11.375C29.25 11.5905 29.3356 11.7972 29.488 11.9495C29.6403 12.1019 29.847 12.1875 30.0625 12.1875C30.278 12.1875 30.4847 12.1019 30.637 11.9495C30.7894 11.7972 30.875 11.5905 30.875 11.375C30.8723 10.6566 30.6316 9.95929 30.1906 9.39215C29.7496 8.82501 29.1331 8.41998 28.4375 8.24038V7.3125C28.4375 7.09701 28.3519 6.89035 28.1995 6.73798C28.0472 6.5856 27.8405 6.5 27.625 6.5C27.4095 6.5 27.2028 6.5856 27.0505 6.73798C26.8981 6.89035 26.8125 7.09701 26.8125 7.3125V8.24038C26.1157 8.41772 25.4979 8.82217 25.0566 9.38983C24.6153 9.95749 24.3758 10.656 24.3758 11.375C24.3758 12.094 24.6153 12.7925 25.0566 13.3602C25.4979 13.9278 26.1157 14.3323 26.8125 14.5096V17.6491C26.5663 17.5076 26.3616 17.3039 26.219 17.0583C26.0764 16.8127 26.0009 16.534 26 16.25ZM28.4375 14.8509C28.6842 14.9918 28.8893 15.1954 29.0319 15.4411C29.1746 15.6868 29.2497 15.9659 29.2497 16.25C29.2497 16.5341 29.1746 16.8132 29.0319 17.0589C28.8893 17.3046 28.6842 17.5082 28.4375 17.6491V14.8509ZM26 11.375C26.0009 11.091 26.0764 10.8123 26.219 10.5667C26.3616 10.3211 26.5663 10.1174 26.8125 9.97587V12.7741C26.5663 12.6326 26.3616 12.4289 26.219 12.1833C26.0764 11.9377 26.0009 11.659 26 11.375Z" fill="white"/>
<path d="M50.0029 34.9683C49.4168 34.5239 48.6873 34.3113 47.9542 34.3713C47.2211 34.4312 46.5358 34.7596 46.0298 35.2933L45.2749 36.0863C45.1224 35.8841 44.944 35.7027 44.7444 35.5468C44.1585 35.1023 43.4291 34.8896 42.6961 34.9496C41.963 35.0096 41.2779 35.338 40.7721 35.8718L37.05 39.78C36.4689 39.2798 35.7286 39.0032 34.9619 39H26.2681L26.0634 38.8635C24.6009 37.9109 22.8931 37.4037 21.1478 37.4037C19.4024 37.4037 17.6946 37.9109 16.2321 38.8635L16.0274 39H13.8125V37.375C13.8125 37.1595 13.7269 36.9528 13.5745 36.8004C13.4222 36.6481 13.2155 36.5625 13 36.5625H1.625C1.40951 36.5625 1.20285 36.6481 1.05048 36.8004C0.898102 36.9528 0.8125 37.1595 0.8125 37.375V51.1875C0.8125 51.403 0.898102 51.6096 1.05048 51.762C1.20285 51.9144 1.40951 52 1.625 52H13C13.2155 52 13.4222 51.9144 13.5745 51.762C13.7269 51.6096 13.8125 51.403 13.8125 51.1875V49.5625H16.0063C17.6827 50.6257 19.6273 51.1894 21.6125 51.1875H38.1404C39.2965 51.1859 40.436 50.911 41.4656 50.3851C42.4953 49.8593 43.386 49.0974 44.0651 48.1617L50.6187 39.1048C51.0731 38.4702 51.2629 37.6839 51.1479 36.9119C51.033 36.14 50.6224 35.443 50.0029 34.9683ZM12.1875 50.375H2.4375V38.1875H12.1875V50.375ZM38.0014 41.136L41.9494 36.9866C42.1805 36.7431 42.4933 36.5934 42.8279 36.5662C43.1625 36.5389 43.4954 36.6359 43.7629 36.8387C43.9187 36.9565 44.0457 37.1082 44.1342 37.2823L38.5824 43.1169C38.3865 43.3175 38.1572 43.4824 37.9048 43.6044C38.0881 43.2209 38.1912 42.8041 38.2079 42.3794C38.2245 41.9547 38.1542 41.531 38.0014 41.1344V41.136ZM49.3033 38.1525L42.7481 47.2062C42.2202 47.9345 41.5277 48.5276 40.7269 48.9371C39.9261 49.3466 39.0398 49.5609 38.1404 49.5625H21.6166C19.8668 49.5638 18.156 49.0458 16.7009 48.074C16.5673 47.9852 16.4105 47.9377 16.25 47.9375H13.8125V40.625H16.2727C16.4332 40.625 16.5902 40.5775 16.7237 40.4885L17.1299 40.2155C18.3244 39.4372 19.7193 39.0229 21.1449 39.0229C22.5705 39.0229 23.9654 39.4372 25.1599 40.2155L25.5661 40.4885C25.6994 40.5774 25.856 40.6248 26.0163 40.625H34.9538C35.3847 40.625 35.798 40.7962 36.1028 41.1009C36.4075 41.4057 36.5788 41.819 36.5788 42.25C36.5788 42.6809 36.4075 43.0943 36.1028 43.399C35.798 43.7038 35.3847 43.875 34.9538 43.875H26.8288C26.6133 43.875 26.4066 43.9606 26.2542 44.1129C26.1019 44.2653 26.0163 44.472 26.0163 44.6875C26.0163 44.903 26.1019 45.1096 26.2542 45.262C26.4066 45.4144 26.6133 45.5 26.8288 45.5H36.8168C37.3673 45.499 37.9119 45.3867 38.4178 45.1697C38.9237 44.9527 39.3804 44.6356 39.7605 44.2373L47.2062 36.4105C47.4453 36.1607 47.7702 36.0109 48.1153 35.9912C48.4605 35.9716 48.8003 36.0835 49.0662 36.3046C49.332 36.5256 49.5042 36.8392 49.5479 37.1822C49.5916 37.5251 49.5036 37.8719 49.3017 38.1525H49.3033Z" fill="white"/>
<path d="M24.375 27.2323V30.0623H22.75C22.5894 30.0623 22.4323 30.11 22.2987 30.1992C22.1651 30.2885 22.061 30.4154 21.9995 30.5638C21.9381 30.7123 21.922 30.8756 21.9533 31.0332C21.9846 31.1908 22.062 31.3356 22.1756 31.4492L27.0506 36.3242C27.203 36.4765 27.4096 36.5621 27.625 36.5621C27.8405 36.5621 28.0471 36.4765 28.1995 36.3242L33.0745 31.4492C33.1881 31.3356 33.2654 31.1908 33.2968 31.0332C33.3281 30.8756 33.312 30.7123 33.2505 30.5638C33.189 30.4154 33.0849 30.2885 32.9513 30.1992C32.8178 30.11 32.6607 30.0623 32.5 30.0623H30.875V27.2323C34.16 26.437 37.0394 24.4649 38.9681 21.6893C40.8967 18.9136 41.7407 15.5272 41.3402 12.1711C40.9398 8.81499 39.3227 5.72221 36.7951 3.4783C34.2675 1.23439 31.0049 -0.00488281 27.625 -0.00488281C24.2451 -0.00488281 20.9825 1.23439 18.455 3.4783C15.9274 5.72221 14.3103 8.81499 13.9098 12.1711C13.5094 15.5272 14.3534 18.9136 16.282 21.6893C18.2106 24.4649 21.09 26.437 24.375 27.2323ZM27.625 1.62476C30.6537 1.63174 33.5712 2.76614 35.8091 4.80688C38.0469 6.84763 39.4448 9.64851 39.7302 12.6637C40.0156 15.6788 39.1682 18.6923 37.353 21.1167C35.5378 23.5411 32.8849 25.2028 29.9114 25.7779C29.7255 25.8131 29.5577 25.9121 29.437 26.0577C29.3163 26.2034 29.2501 26.3866 29.25 26.5758V30.8748C29.25 31.0902 29.3356 31.2969 29.488 31.4493C29.6404 31.6017 29.847 31.6873 30.0625 31.6873H30.5387L27.625 34.6009L24.7114 31.6873H25.1875C25.403 31.6873 25.6097 31.6017 25.7621 31.4493C25.9144 31.2969 26 31.0902 26 30.8748V26.5758C25.9999 26.3866 25.9338 26.2034 25.8131 26.0577C25.6923 25.9121 25.5245 25.8131 25.3387 25.7779C22.3651 25.2028 19.7123 23.5411 17.8971 21.1167C16.0819 18.6923 15.2344 15.6788 15.5199 12.6637C15.8053 9.64851 17.2031 6.84763 19.441 4.80688C21.6789 2.76614 24.5964 1.63174 27.625 1.62476Z" fill="white"/>
</g>
<defs>
<clipPath id="clip0_373_35">
<rect width="52" height="52" fill="white"/>
</clipPath>
</defs>
</svg>
