<svg width="20" height="20" viewBox="0 0 20 20" fill="none" xmlns="http://www.w3.org/2000/svg">
<path fill-rule="evenodd" clip-rule="evenodd" d="M18.0817 13.1951C18.0817 14.884 16.7079 16.2557 15.0211 16.2557H4.97984C3.29309 16.2557 1.91922 14.884 1.91922 13.1951V6.80598C1.91922 6.2423 2.07355 5.71289 2.34145 5.25852L7.24098 10.158C7.97398 10.8932 8.95559 11.2983 10.0015 11.2983C11.0453 11.2983 12.0269 10.8932 12.7599 10.158L17.6595 5.25852C17.9274 5.71289 18.0817 6.24227 18.0817 6.80598V13.1951H18.0817ZM15.0211 3.74539H4.97984C4.28328 3.74539 3.64027 3.98113 3.1259 4.37336L8.07473 9.32434C8.58699 9.83441 9.27067 10.1173 10.0015 10.1173C10.7302 10.1173 11.4139 9.83441 11.9262 9.32434L16.875 4.37336C16.3607 3.98113 15.7177 3.74539 15.0211 3.74539ZM15.0211 2.56445H4.97984C2.64152 2.56445 0.738281 4.4677 0.738281 6.80602V13.1952C0.738281 15.5356 2.64152 17.4367 4.97984 17.4367H15.0211C17.3594 17.4367 19.2627 15.5356 19.2627 13.1952V6.80598C19.2627 4.46766 17.3594 2.56445 15.0211 2.56445Z" fill="black"/>
</svg>
