<svg width="20" height="20" viewBox="0 0 20 20" fill="none" xmlns="http://www.w3.org/2000/svg">
<path d="M14.2969 0H5.70312C4.89539 0 4.23828 0.657109 4.23828 1.46484V18.5352C4.23828 19.3429 4.89539 20 5.70312 20H14.2969C15.1046 20 15.7617 19.3429 15.7617 18.5352V1.46484C15.7617 0.657109 15.1046 0 14.2969 0ZM15.1758 15.8984H6.875C6.7132 15.8984 6.58203 16.0296 6.58203 16.1914C6.58203 16.3532 6.7132 16.4844 6.875 16.4844H15.1758V18.5352C15.1758 19.0198 14.7815 19.4141 14.2969 19.4141H5.70312C5.21848 19.4141 4.82422 19.0198 4.82422 18.5352V16.4844H5.70312C5.86492 16.4844 5.99609 16.3532 5.99609 16.1914C5.99609 16.0296 5.86492 15.8984 5.70312 15.8984H4.82422V2.92969H15.1758V15.8984ZM15.1758 2.34375H4.82422V1.46484C4.82422 0.980195 5.21848 0.585938 5.70312 0.585938H14.2969C14.7815 0.585938 15.1758 0.980195 15.1758 1.46484V2.34375Z" fill="black"/>
<path d="M11.1719 1.17188H10C9.8382 1.17188 9.70703 1.30305 9.70703 1.46484C9.70703 1.62664 9.8382 1.75781 10 1.75781H11.1719C11.3337 1.75781 11.4648 1.62664 11.4648 1.46484C11.4648 1.30305 11.3337 1.17188 11.1719 1.17188Z" fill="black"/>
<path d="M10 17.0703C9.51535 17.0703 9.12109 17.4646 9.12109 17.9492C9.12109 18.4339 9.51535 18.8281 10 18.8281C10.4846 18.8281 10.8789 18.4339 10.8789 17.9492C10.8789 17.4646 10.4846 17.0703 10 17.0703ZM10 18.2422C9.83844 18.2422 9.70703 18.1108 9.70703 17.9492C9.70703 17.7877 9.83844 17.6562 10 17.6562C10.1616 17.6562 10.293 17.7877 10.293 17.9492C10.293 18.1108 10.1616 18.2422 10 18.2422Z" fill="black"/>
<path d="M8.82812 1.75781C8.98993 1.75781 9.12109 1.62665 9.12109 1.46484C9.12109 1.30304 8.98993 1.17188 8.82812 1.17188C8.66632 1.17188 8.53516 1.30304 8.53516 1.46484C8.53516 1.62665 8.66632 1.75781 8.82812 1.75781Z" fill="black"/>
</svg>
