<svg width="23" height="23" viewBox="0 0 23 23" fill="none" xmlns="http://www.w3.org/2000/svg">
<path d="M21.6562 9.15625C21.449 9.15625 21.2503 9.23857 21.1038 9.38508C20.9573 9.53159 20.875 9.7303 20.875 9.9375V20.0938C20.875 20.301 20.7927 20.4997 20.6462 20.6462C20.4997 20.7927 20.301 20.875 20.0938 20.875H2.90625C2.69905 20.875 2.50034 20.7927 2.35382 20.6462C2.20731 20.4997 2.125 20.301 2.125 20.0938V7.96094C2.12323 7.83337 2.15274 7.7073 2.21094 7.59376L4.73438 2.55469C4.79989 2.42466 4.90044 2.31553 5.02468 2.23961C5.14892 2.16369 5.2919 2.12399 5.4375 2.125H8.27344L7.6875 6.8125H4.46875C4.26155 6.8125 4.06284 6.89481 3.91632 7.04133C3.76981 7.18784 3.6875 7.38655 3.6875 7.59376C3.6875 7.80096 3.76981 7.99967 3.91632 8.14618C4.06284 8.2927 4.26155 8.37501 4.46875 8.37501H7.59375V15.4063C7.59419 15.5505 7.63457 15.6919 7.71041 15.8146C7.78625 15.9373 7.8946 16.0366 8.02344 16.1016C8.1483 16.1598 8.28632 16.1839 8.42353 16.1716C8.56073 16.1592 8.69223 16.1108 8.80469 16.0313L11.5 14.0391L14.1562 16.0313C14.2915 16.1327 14.456 16.1875 14.625 16.1875C14.7476 16.1897 14.8688 16.1601 14.9766 16.1016C15.1054 16.0366 15.2137 15.9373 15.2896 15.8146C15.3654 15.6919 15.4058 15.5505 15.4062 15.4063V8.37501H21.6562C21.8057 8.37333 21.9516 8.32881 22.0765 8.24672C22.2014 8.16463 22.3002 8.04843 22.3611 7.9119C22.4219 7.77537 22.4423 7.62424 22.4199 7.47645C22.3974 7.32867 22.333 7.19042 22.2344 7.07813C22.226 7.02162 22.2103 6.96645 22.1875 6.91407L19.6641 1.85938C19.4692 1.46903 19.1692 1.14082 18.7979 0.911705C18.4267 0.682585 17.9988 0.561647 17.5625 0.562505H5.4375C5.00121 0.561647 4.57334 0.682585 4.20206 0.911705C3.83077 1.14082 3.53081 1.46903 3.33594 1.85938L0.8125 6.91407C0.649085 7.23891 0.563495 7.59732 0.5625 7.96094V20.0938C0.5625 20.7154 0.80943 21.3115 1.24897 21.751C1.68851 22.1906 2.28465 22.4375 2.90625 22.4375H20.0938C20.7154 22.4375 21.3115 22.1906 21.751 21.751C22.1906 21.3115 22.4375 20.7154 22.4375 20.0938V9.9375C22.4375 9.7303 22.3552 9.53159 22.2087 9.38508C22.0622 9.23857 21.8635 9.15625 21.6562 9.15625ZM17.5625 2.125C17.7081 2.12399 17.8511 2.16369 17.9753 2.23961C18.0996 2.31553 18.2001 2.42466 18.2656 2.55469L20.3906 6.8125H15.2344L14.0625 2.125H17.5625ZM9.84375 2.125H12.4531L13.625 6.8125H9.25781L9.84375 2.125ZM9.15625 8.37501H13.8438V13.8438L11.9688 12.4375C11.8335 12.3361 11.669 12.2813 11.5 12.2813C11.331 12.2813 11.1665 12.3361 11.0312 12.4375L9.15625 13.8438V8.37501ZM18.5312 17.75C18.7385 17.75 18.9372 17.8323 19.0837 17.9788C19.2302 18.1253 19.3125 18.3241 19.3125 18.5313C19.3125 18.7385 19.2302 18.9372 19.0837 19.0837C18.9372 19.2302 18.7385 19.3125 18.5312 19.3125H15.4062C15.199 19.3125 15.0003 19.2302 14.8538 19.0837C14.7073 18.9372 14.625 18.7385 14.625 18.5313C14.625 18.3241 14.7073 18.1253 14.8538 17.9788C15.0003 17.8323 15.199 17.75 15.4062 17.75H18.5312Z" fill="black"/>
</svg>
