<svg width="20" height="20" viewBox="0 0 20 20" fill="none" xmlns="http://www.w3.org/2000/svg">
<path d="M10.0002 0.587891C7.05905 0.587891 4.70611 2.94083 4.70611 5.88201V8.23495C3.70611 8.23495 2.94141 8.99966 2.94141 9.99966V17.6467C2.94141 18.6467 3.70611 19.4114 4.70611 19.4114H15.2943C16.2943 19.4114 17.0591 18.6467 17.0591 17.6467V9.99966C17.0591 8.99966 16.2943 8.23495 15.2943 8.23495V5.88201C15.2943 2.94083 12.9414 0.587891 10.0002 0.587891ZM15.8826 9.99966V17.6467C15.8826 17.9997 15.6473 18.235 15.2943 18.235H4.70611C4.35317 18.235 4.11788 17.9997 4.11788 17.6467V9.99966C4.11788 9.64671 4.35317 9.41142 4.70611 9.41142H5.29435H14.7061H15.2943C15.6473 9.41142 15.8826 9.64671 15.8826 9.99966ZM5.88258 8.23495V5.88201C5.88258 3.58789 7.70611 1.76436 10.0002 1.76436C12.2943 1.76436 14.1179 3.58789 14.1179 5.88201V8.23495H5.88258Z" fill="black"/>
<path d="M9.99908 11.1758C8.99908 11.1758 8.23438 11.9405 8.23438 12.9405C8.23438 13.7052 8.70496 14.3523 9.41085 14.5875V15.8817C9.41085 16.2346 9.64614 16.4699 9.99908 16.4699C10.352 16.4699 10.5873 16.2346 10.5873 15.8817V14.5875C11.2932 14.3523 11.7638 13.7052 11.7638 12.9405C11.7638 11.9405 10.9991 11.1758 9.99908 11.1758ZM9.99908 13.5287C9.64614 13.5287 9.41085 13.2934 9.41085 12.9405C9.41085 12.5875 9.64614 12.3523 9.99908 12.3523C10.352 12.3523 10.5873 12.5875 10.5873 12.9405C10.5873 13.2934 10.352 13.5287 9.99908 13.5287Z" fill="black"/>
</svg>
