<svg width="12" height="20" viewBox="0 0 12 20" fill="none" xmlns="http://www.w3.org/2000/svg">
<path d="M10.2969 0H1.70312C0.895391 0 0.238281 0.657109 0.238281 1.46484V18.5352C0.238281 19.3429 0.895391 20 1.70312 20H10.2969C11.1046 20 11.7617 19.3429 11.7617 18.5352V1.46484C11.7617 0.657109 11.1046 0 10.2969 0ZM11.1758 15.8984H2.875C2.7132 15.8984 2.58203 16.0296 2.58203 16.1914C2.58203 16.3532 2.7132 16.4844 2.875 16.4844H11.1758V18.5352C11.1758 19.0198 10.7815 19.4141 10.2969 19.4141H1.70312C1.21848 19.4141 0.824219 19.0198 0.824219 18.5352V16.4844H1.70312C1.86492 16.4844 1.99609 16.3532 1.99609 16.1914C1.99609 16.0296 1.86492 15.8984 1.70312 15.8984H0.824219V2.92969H11.1758V15.8984ZM11.1758 2.34375H0.824219V1.46484C0.824219 0.980195 1.21848 0.585938 1.70312 0.585938H10.2969C10.7815 0.585938 11.1758 0.980195 11.1758 1.46484V2.34375Z" fill="black"/>
</svg>
