<svg width="105" height="105" viewBox="0 0 105 105" fill="none" xmlns="http://www.w3.org/2000/svg">
<path d="M52.5 104.881C81.4302 104.881 104.883 81.4283 104.883 52.498C104.883 23.5678 81.4302 0.115234 52.5 0.115234C23.5698 0.115234 0.117188 23.5678 0.117188 52.498C0.117188 81.4283 23.5698 104.881 52.5 104.881Z" fill="#F24646"/>
<path d="M41.3723 76.0753L78.3755 54.7112C78.7635 54.4868 79.0855 54.1643 79.3095 53.7761C79.5334 53.3879 79.6512 52.9477 79.6512 52.4995C79.6512 52.0514 79.5334 51.6111 79.3095 51.2229C79.0855 50.8347 78.7635 50.5122 78.3755 50.2878L41.3723 28.9214C40.9837 28.6989 40.5435 28.5823 40.0956 28.583C39.6478 28.5838 39.208 28.7019 38.8201 28.9258C38.4322 29.1496 38.1098 29.4712 37.885 29.8585C37.6602 30.2458 37.5409 30.6853 37.5391 31.1332V73.8624C37.5407 74.3103 37.6599 74.75 37.8846 75.1375C38.1093 75.525 38.4317 75.8467 38.8196 76.0707C39.2075 76.2946 39.6474 76.4129 40.0954 76.4137C40.5433 76.4145 40.9836 76.2978 41.3723 76.0753Z" fill="#FFFCEE"/>
</svg>
