<svg width="80" height="80" viewBox="0 0 80 80" fill="none" xmlns="http://www.w3.org/2000/svg">
<g clip-path="url(#clip0_373_123)">
<mask id="mask0_373_123" style="mask-type:luminance" maskUnits="userSpaceOnUse" x="0" y="0" width="80" height="80">
<path d="M80 0H0V80H80V0Z" fill="white"/>
<path d="M40 61.875C40.8625 61.875 41.5625 62.575 41.5625 63.4375C41.5625 64.3 40.8625 65 40 65C39.1375 65 38.4375 64.3 38.4375 63.4375C38.4375 62.575 39.1375 61.875 40 61.875Z" fill="white"/>
</mask>
<g mask="url(#mask0_373_123)">
<mask id="mask1_373_123" style="mask-type:luminance" maskUnits="userSpaceOnUse" x="0" y="0" width="80" height="80">
<path d="M0 7.62939e-06H80V80H0V7.62939e-06Z" fill="white"/>
</mask>
<g mask="url(#mask1_373_123)">
<path d="M40 61.875C40.8625 61.875 41.5625 62.575 41.5625 63.4375C41.5625 64.3 40.8625 65 40 65C39.1375 65 38.4375 64.3 38.4375 63.4375C38.4375 62.575 39.1375 61.875 40 61.875Z" fill="black"/>
<path d="M73.2812 49.375C73.2812 53.6891 69.7828 57.1875 65.4687 57.1875C61.1547 57.1875 57.6562 53.6891 57.6562 49.375C57.6562 45.0609 61.1547 41.5625 65.4687 41.5625C69.7828 41.5625 73.2812 45.0609 73.2812 49.375Z" stroke="white" stroke-width="2" stroke-miterlimit="10" stroke-linecap="round" stroke-linejoin="round"/>
<path d="M22.8125 75.9375H1.5625V72.8125C1.5625 65.9094 7.62812 60.3125 14.5312 60.3125C18.7516 60.3125 22.9516 62.4031 25.2141 65.6063" stroke="white" stroke-width="2" stroke-miterlimit="10" stroke-linecap="round" stroke-linejoin="round"/>
<path d="M54.7852 65.6063C57.0477 62.4031 61.2477 60.3125 65.468 60.3125C72.3711 60.3125 78.4367 65.9094 78.4367 72.8125V75.9375H57.1867" stroke="white" stroke-width="2" stroke-miterlimit="10" stroke-linecap="round" stroke-linejoin="round"/>
<path d="M22.3437 49.375C22.3437 53.6891 18.8453 57.1875 14.5312 57.1875C10.2172 57.1875 6.71875 53.6891 6.71875 49.375C6.71875 45.0609 10.2172 41.5625 14.5312 41.5625C18.8453 41.5625 22.3437 45.0609 22.3437 49.375Z" stroke="white" stroke-width="2" stroke-miterlimit="10" stroke-linecap="round" stroke-linejoin="round"/>
<path d="M50.9375 43.125C50.9375 49.1656 46.0406 54.0625 40 54.0625C33.9594 54.0625 29.0625 49.1656 29.0625 43.125C29.0625 37.0844 33.9594 32.1875 40 32.1875C46.0406 32.1875 50.9375 37.0844 50.9375 43.125Z" stroke="white" stroke-width="2" stroke-miterlimit="10" stroke-linecap="round" stroke-linejoin="round"/>
<path d="M39.9437 4.0627L36.5641 10.9736L29.0078 12.0705L34.4766 17.4002L33.1859 24.9268L39.9437 21.3736C42.4828 22.708 44.2361 23.6299 46.7033 24.9268L45.4109 17.4002L50.8797 12.0705L43.3234 10.9736L39.9437 4.0627Z" stroke="white" stroke-width="2" stroke-miterlimit="10" stroke-linecap="round" stroke-linejoin="round"/>
<path d="M66.45 30.4045L71.2609 32.9326L70.3422 27.5764L74.2342 23.7811L68.8547 22.9998L66.45 18.1248L64.0437 22.9998L58.6641 23.7811L62.5562 27.5764L61.6375 32.9326L66.45 30.4045Z" stroke="white" stroke-width="2" stroke-miterlimit="10" stroke-linecap="round" stroke-linejoin="round"/>
<path d="M13.325 30.4045L18.1359 32.9326L17.2172 27.5764L21.1094 23.7811L15.7297 22.9998L13.325 18.1248L10.9188 22.9998L5.53906 23.7811L9.43125 27.5764L8.5125 32.9326L13.325 30.4045Z" stroke="white" stroke-width="2" stroke-miterlimit="10" stroke-linecap="round" stroke-linejoin="round"/>
<path d="M57.1875 75.9375H22.8125V74.375C22.8125 71.1719 23.6891 68.1734 25.2141 65.6062C28.2109 60.5656 33.7109 57.1875 40 57.1875C44.7469 57.1875 49.0437 59.1109 52.1531 62.2219C53.1641 63.2328 54.05 64.3687 54.7859 65.6062C56.3109 68.1734 57.1875 71.1719 57.1875 74.375V75.9375Z" stroke="white" stroke-width="2" stroke-miterlimit="10" stroke-linecap="round" stroke-linejoin="round"/>
<path d="M45.9883 65.2266C47.6602 66.325 49.0148 67.8688 49.8805 69.6875" stroke="white" stroke-width="2" stroke-miterlimit="10" stroke-linecap="round" stroke-linejoin="round"/>
</g>
</g>
</g>
<defs>
<clipPath id="clip0_373_123">
<rect width="80" height="80" fill="white"/>
</clipPath>
</defs>
</svg>
