<svg width="80" height="80" viewBox="0 0 80 80" fill="none" xmlns="http://www.w3.org/2000/svg">
<path fill-rule="evenodd" clip-rule="evenodd" d="M69.3665 38.7671C68.6865 38.8818 68.2275 39.5264 68.3423 40.2075C68.6133 41.8091 68.75 43.4204 68.75 45C68.75 53.8106 64.823 61.7633 58.4958 67.0586C57.3907 59.8837 52.2968 54.1292 45.5324 52.0699C48.2217 50.2759 50 47.2192 50 43.75C50 38.2349 45.5139 33.75 40 33.75C34.4861 33.75 30 38.2349 30 43.75C30 47.2192 31.7783 50.2759 34.4676 52.0699C27.7032 54.1292 22.6093 59.8837 21.5042 67.0586C15.177 61.7633 11.25 53.8106 11.25 45C11.25 43.4204 11.3867 41.8091 11.6577 40.2075C11.7725 39.5264 11.3135 38.8818 10.6335 38.7671C9.93774 38.6499 9.30786 39.1113 9.19189 39.7925C8.89893 41.5283 8.75 43.2812 8.75 45C8.75 60.3516 19.7144 73.3081 34.8206 75.8081C34.8889 75.8203 34.9585 75.8252 35.0256 75.8252C35.6262 75.8252 36.156 75.3906 36.2573 74.7803C36.3708 74.0991 35.9094 73.4546 35.2283 73.3423C31.0161 72.6451 27.1626 71.0526 23.8255 68.7935C24.4286 60.3105 31.4003 53.75 40 53.75C48.5997 53.75 55.5714 60.3105 56.1745 68.7935C52.8374 71.0526 48.9839 72.6451 44.7717 73.3423C44.0906 73.4546 43.6292 74.0991 43.7427 74.7803C43.844 75.3906 44.3738 75.8252 44.9744 75.8252C45.0415 75.8252 45.1111 75.8203 45.1794 75.8081C60.2856 73.3081 71.25 60.3516 71.25 45C71.25 43.2812 71.1011 41.5283 70.8081 39.7925C70.6921 39.1113 70.0549 38.6475 69.3665 38.7671ZM32.5 43.75C32.5 39.6143 35.8643 36.25 40 36.25C44.1357 36.25 47.5 39.6143 47.5 43.75C47.5 47.8857 44.1357 51.25 40 51.25C35.8643 51.25 32.5 47.8857 32.5 43.75Z" fill="white"/>
<path fill-rule="evenodd" clip-rule="evenodd" d="M53.6889 13.6963C53.5412 13.2422 53.1506 12.9126 52.6794 12.8442L44.6923 11.6846L41.1206 4.4458C40.7006 3.59619 39.2993 3.59619 38.8793 4.4458L35.3076 11.6846L27.3205 12.8442C26.8493 12.9126 26.4587 13.2422 26.311 13.6963C26.1645 14.1479 26.2866 14.646 26.6271 14.978L32.4072 20.6104L31.0424 28.5645C30.9619 29.0356 31.1547 29.5093 31.5393 29.7876C31.9262 30.0684 32.4352 30.1099 32.8564 29.8828L39.9999 26.1255L47.1435 29.8828C47.3266 29.9805 47.5268 30.0269 47.7258 30.0269C47.9846 30.0269 48.2421 29.9463 48.4606 29.7876C48.8452 29.5093 49.038 29.0356 48.9575 28.5645L47.5927 20.6104L53.3727 14.978C53.7133 14.646 53.8354 14.1479 53.6889 13.6963ZM45.3771 19.2773C45.083 19.5654 44.9487 19.978 45.0183 20.3857L46.0656 26.4917L40.5822 23.6084C40.3991 23.5132 40.2001 23.4644 39.9999 23.4644C39.7998 23.4644 39.6008 23.5132 39.4177 23.6084L33.9343 26.4917L34.9816 20.3857C35.0512 19.978 34.9169 19.5654 34.6227 19.2773L30.1867 14.9561L36.3171 14.0649C36.7248 14.0039 37.0764 13.75 37.2582 13.3813L39.9999 7.82471L42.7416 13.3813C42.9235 13.75 43.2751 14.0039 43.6828 14.0649L49.8132 14.9561L45.3771 19.2773Z" fill="white"/>
<path fill-rule="evenodd" clip-rule="evenodd" d="M10.0878 33.8086C10.0073 34.2798 10.2001 34.7534 10.5847 35.0317C10.9728 35.3125 11.4831 35.3516 11.9018 35.127L17.4999 32.1826L23.0981 35.127C23.2812 35.2246 23.4814 35.271 23.6804 35.271C23.9392 35.271 24.1967 35.1904 24.4152 35.0317C24.7998 34.7534 24.9926 34.2798 24.9121 33.8086L23.8427 27.5757L28.3727 23.1616C28.7133 22.8296 28.8354 22.3315 28.6889 21.8799C28.5412 21.4258 28.1506 21.0962 27.6794 21.0278L21.4196 20.1196L18.6206 14.4458C18.2006 13.5962 16.7993 13.5962 16.3793 14.4458L13.5803 20.1196L7.3205 21.0278C6.84931 21.0962 6.45869 21.4258 6.31098 21.8799C6.1645 22.3315 6.28657 22.8296 6.62714 23.1616L11.1572 27.5757L10.0878 33.8086ZM10.1867 23.1396L14.5898 22.5C14.9975 22.439 15.3491 22.1851 15.531 21.8164L17.4999 17.8247L19.4689 21.8164C19.6508 22.1851 20.0024 22.439 20.4101 22.5L24.8132 23.1396L21.6271 26.2427C21.333 26.5308 21.1987 26.9434 21.2683 27.3511L22.0202 31.7358L18.0822 29.6655C17.8991 29.5703 17.7001 29.5215 17.4999 29.5215C17.2998 29.5215 17.1008 29.5703 16.9177 29.6655L12.9797 31.7358L13.7316 27.3511C13.8012 26.9434 13.6669 26.5308 13.3727 26.2427L10.1867 23.1396Z" fill="white"/>
<path fill-rule="evenodd" clip-rule="evenodd" d="M72.6794 21.0278L66.4196 20.1196L63.6206 14.4458C63.2006 13.5962 61.7993 13.5962 61.3793 14.4458L58.5803 20.1196L52.3205 21.0278C51.8493 21.0962 51.4587 21.4258 51.311 21.8799C51.1645 22.3315 51.2866 22.8296 51.6271 23.1616L56.1572 27.5757L55.0878 33.8086C55.0073 34.2798 55.2001 34.7534 55.5847 35.0317C55.9716 35.3125 56.4807 35.3516 56.9018 35.127L62.4999 32.1826L68.0981 35.127C68.2812 35.2246 68.4814 35.271 68.6804 35.271C68.9392 35.271 69.1967 35.1904 69.4152 35.0317C69.7998 34.7534 69.9926 34.2798 69.9121 33.8086L68.8427 27.5757L73.3727 23.1616C73.7133 22.8296 73.8354 22.3315 73.6889 21.8799C73.5412 21.4258 73.1506 21.0962 72.6794 21.0278ZM66.6271 26.2427C66.333 26.5308 66.1987 26.9434 66.2683 27.3511L67.0202 31.7358L63.0822 29.6655C62.8991 29.5703 62.7001 29.5215 62.4999 29.5215C62.2998 29.5215 62.1008 29.5703 61.9177 29.6655L57.9797 31.7358L58.7316 27.3511C58.8012 26.9434 58.6669 26.5308 58.3727 26.2427L55.1867 23.1396L59.5898 22.5C59.9975 22.439 60.3491 22.1851 60.531 21.8164L62.4999 17.8247L64.4689 21.8164C64.6508 22.1851 65.0024 22.439 65.4101 22.5L69.8132 23.1396L66.6271 26.2427Z" fill="white"/>
<path d="M40 76.25C40.6904 76.25 41.25 75.6904 41.25 75C41.25 74.3096 40.6904 73.75 40 73.75C39.3096 73.75 38.75 74.3096 38.75 75C38.75 75.6904 39.3096 76.25 40 76.25Z" fill="white"/>
</svg>
