<svg width="30" height="30" viewBox="0 0 30 30" fill="none" xmlns="http://www.w3.org/2000/svg">
<path d="M15 14.5315C16.2432 14.5315 17.4355 14.0376 18.3146 13.1585C19.1936 12.2795 19.6875 11.0872 19.6875 9.84398V9.3096C20.1294 9.19551 20.5145 8.92418 20.7706 8.54647C21.0267 8.16876 21.1363 7.71061 21.0788 7.25788C21.0213 6.80516 20.8007 6.38895 20.4582 6.08726C20.1158 5.78558 19.6751 5.61914 19.2188 5.61914C18.7624 5.61914 18.3217 5.78558 17.9793 6.08726C17.6368 6.38895 17.4162 6.80516 17.3587 7.25788C17.3012 7.71061 17.4108 8.16876 17.6669 8.54647C17.923 8.92418 18.3081 9.19551 18.75 9.3096V9.84398C18.75 10.8385 18.3549 11.7924 17.6517 12.4956C16.9484 13.1989 15.9946 13.594 15 13.594C14.0054 13.594 13.0516 13.1989 12.3484 12.4956C11.6451 11.7924 11.25 10.8385 11.25 9.84398V9.3096C11.6919 9.19551 12.077 8.92418 12.3331 8.54647C12.5892 8.16876 12.6988 7.71061 12.6413 7.25788C12.5838 6.80516 12.3632 6.38895 12.0207 6.08726C11.6783 5.78558 11.2376 5.61914 10.7813 5.61914C10.3249 5.61914 9.8842 5.78558 9.54177 6.08726C9.19935 6.38895 8.9787 6.80516 8.9212 7.25788C8.8637 7.71061 8.97328 8.16876 9.22941 8.54647C9.48554 8.92418 9.87063 9.19551 10.3125 9.3096V9.84398C10.3125 11.0872 10.8064 12.2795 11.6854 13.1585C12.5645 14.0376 13.7568 14.5315 15 14.5315ZM18.2813 7.50023C18.2803 7.33543 18.3227 7.17328 18.4044 7.03012C18.486 6.88696 18.604 6.76786 18.7463 6.68481C18.8887 6.60177 19.0504 6.55772 19.2152 6.55709C19.38 6.55647 19.5421 6.59931 19.685 6.68128C19.828 6.76325 19.9468 6.88146 20.0296 7.024C20.1123 7.16653 20.156 7.32836 20.1562 7.49316C20.1565 7.65797 20.1133 7.81992 20.031 7.96271C19.9487 8.1055 19.8302 8.22407 19.6875 8.30648V7.50023C19.6875 7.37591 19.6381 7.25668 19.5502 7.16877C19.4623 7.08086 19.3431 7.03148 19.2188 7.03148C19.0944 7.03148 18.9752 7.08086 18.8873 7.16877C18.7994 7.25668 18.75 7.37591 18.75 7.50023V8.30648C18.6083 8.22467 18.4905 8.10722 18.4083 7.96578C18.326 7.82433 18.2822 7.66383 18.2813 7.50023ZM9.84375 7.50023C9.84276 7.33543 9.88523 7.17328 9.96688 7.03012C10.0485 6.88696 10.1665 6.76786 10.3088 6.68481C10.4512 6.60177 10.6129 6.55772 10.7777 6.55709C10.9425 6.55647 11.1046 6.59931 11.2475 6.68128C11.3905 6.76325 11.5093 6.88146 11.5921 7.024C11.6748 7.16653 11.7185 7.32836 11.7187 7.49316C11.719 7.65797 11.6758 7.81992 11.5935 7.96271C11.5112 8.1055 11.3927 8.22407 11.25 8.30648V7.50023C11.25 7.37591 11.2006 7.25668 11.1127 7.16877C11.0248 7.08086 10.9056 7.03148 10.7813 7.03148C10.6569 7.03148 10.5377 7.08086 10.4498 7.16877C10.3619 7.25668 10.3125 7.37591 10.3125 7.50023V8.30648C10.1708 8.22467 10.053 8.10722 9.97076 7.96578C9.88853 7.82433 9.84474 7.66383 9.84375 7.50023Z" fill="#252E33"/>
<path d="M28.5942 23.9062L27.5864 19.125C27.5741 19.0634 27.5497 19.0049 27.5148 18.9528C27.4799 18.9006 27.435 18.8558 27.3828 18.821C27.3306 18.7862 27.272 18.762 27.2104 18.7498C27.1488 18.7376 27.0854 18.7377 27.0239 18.75C26.9623 18.7623 26.9038 18.7866 26.8516 18.8216C26.7995 18.8565 26.7547 18.9014 26.7199 18.9536C26.6851 19.0058 26.6609 19.0644 26.6487 19.126C26.6365 19.1876 26.6366 19.2509 26.6489 19.3125L27.6567 24.0891C27.6989 24.2934 27.6952 24.5045 27.6458 24.7072C27.5963 24.9099 27.5024 25.099 27.3708 25.2609C27.2399 25.4223 27.0749 25.5526 26.8877 25.6425C26.7005 25.7325 26.4957 25.7799 26.2879 25.7812H3.71294C3.50364 25.7813 3.29698 25.7346 3.10803 25.6445C2.91908 25.5545 2.75261 25.4235 2.62075 25.2609C2.49077 25.0983 2.39853 24.9088 2.3507 24.7061C2.30288 24.5034 2.30065 24.2927 2.34419 24.0891L6.25356 5.33906C6.31884 5.02465 6.48977 4.74204 6.73793 4.53823C6.98608 4.33442 7.29652 4.22168 7.61763 4.21875H22.3833C22.706 4.21954 23.0186 4.33131 23.2687 4.53529C23.5188 4.73928 23.6911 5.02308 23.7567 5.33906L26.2786 17.4375C26.2908 17.4983 26.3151 17.5561 26.3498 17.6075C26.3846 17.6589 26.4292 17.7028 26.4811 17.7368C26.533 17.7709 26.5911 17.7942 26.6521 17.8056C26.7131 17.817 26.7757 17.8161 26.8364 17.8031C26.9556 17.7751 27.0592 17.7016 27.1249 17.5982C27.1906 17.4948 27.2132 17.3699 27.1879 17.25L24.6754 5.15625C24.5675 4.62765 24.2806 4.15246 23.863 3.81087C23.4454 3.46928 22.9228 3.28222 22.3833 3.28125H7.61763C7.07812 3.28222 6.55548 3.46928 6.13789 3.81087C5.7203 4.15246 5.43334 4.62765 5.32544 5.15625L1.40669 23.9062C1.33423 24.2472 1.3387 24.5999 1.41979 24.9389C1.50088 25.2778 1.65654 25.5944 1.87544 25.8656C2.0984 26.1362 2.37924 26.3533 2.69725 26.501C3.01526 26.6486 3.36235 26.723 3.71294 26.7188H26.2879C26.6393 26.7219 26.9868 26.646 27.3049 26.4967C27.623 26.3474 27.9034 26.1286 28.1254 25.8563C28.343 25.5861 28.4979 25.2711 28.5789 24.9339C28.66 24.5967 28.6652 24.2457 28.5942 23.9062Z" fill="#252E33"/>
</svg>
