<svg width="22" height="22" viewBox="0 0 22 22" fill="none" xmlns="http://www.w3.org/2000/svg">
<path d="M12.7305 18.851H9.27205C7.07205 18.851 5.28125 16.959 5.28125 14.6336V7.44844C5.28125 7.30257 5.3392 7.16267 5.44234 7.05953C5.54549 6.95638 5.68538 6.89844 5.83125 6.89844C5.97712 6.89844 6.11701 6.95638 6.22016 7.05953C6.3233 7.16267 6.38125 7.30257 6.38125 7.44844V14.6336C6.38125 16.354 7.67925 17.751 9.27205 17.751H12.7305C14.3233 17.751 15.6213 16.354 15.6213 14.6336V7.44844C15.6213 7.30257 15.6792 7.16267 15.7823 7.05953C15.8855 6.95638 16.0254 6.89844 16.1713 6.89844C16.3171 6.89844 16.457 6.95638 16.5602 7.05953C16.6633 7.16267 16.7213 7.30257 16.7213 7.44844V14.6336C16.7213 16.959 14.9305 18.851 12.7305 18.851Z" fill="black"/>
<path d="M17.5663 6.52773H4.43672C4.29085 6.52773 4.15096 6.46979 4.04781 6.36664C3.94467 6.2635 3.88672 6.1236 3.88672 5.97773C3.88672 5.83187 3.94467 5.69197 4.04781 5.58883C4.15096 5.48568 4.29085 5.42773 4.43672 5.42773H17.5663C17.7122 5.42773 17.8521 5.48568 17.9552 5.58883C18.0584 5.69197 18.1163 5.83187 18.1163 5.97773C18.1163 6.1236 18.0584 6.2635 17.9552 6.36664C17.8521 6.46979 17.7122 6.52773 17.5663 6.52773Z" fill="black"/>
<path d="M14.3983 5.89063C14.2524 5.89063 14.1125 5.83268 14.0094 5.72953C13.9062 5.62639 13.8483 5.48649 13.8483 5.34063C13.8483 4.74883 13.4347 4.24063 12.9463 4.24063H9.05669C8.56829 4.24063 8.15469 4.74223 8.15469 5.34063C8.15469 5.48649 8.09674 5.62639 7.9936 5.72953C7.89045 5.83268 7.75056 5.89063 7.60469 5.89063C7.45882 5.89063 7.31892 5.83268 7.21578 5.72953C7.11263 5.62639 7.05469 5.48649 7.05469 5.34063C7.05469 4.13063 7.95449 3.14062 9.05669 3.14062H12.9463C14.0463 3.14062 14.9483 4.12403 14.9483 5.34063C14.9483 5.48649 14.8903 5.62639 14.7872 5.72953C14.6841 5.83268 14.5442 5.89063 14.3983 5.89063Z" fill="black"/>
<path d="M9.24141 16.486C9.09554 16.486 8.95564 16.4281 8.8525 16.3249C8.74935 16.2218 8.69141 16.0819 8.69141 15.936V9.81562C8.69141 9.66976 8.74935 9.52986 8.8525 9.42672C8.95564 9.32357 9.09554 9.26562 9.24141 9.26562C9.38728 9.26562 9.52717 9.32357 9.63032 9.42672C9.73346 9.52986 9.79141 9.66976 9.79141 9.81562V15.936C9.79141 16.0819 9.73346 16.2218 9.63032 16.3249C9.52717 16.4281 9.38728 16.486 9.24141 16.486Z" fill="black"/>
<path d="M12.8898 16.486C12.8175 16.4863 12.7459 16.4723 12.679 16.4448C12.6122 16.4172 12.5514 16.3767 12.5003 16.3256C12.4492 16.2745 12.4087 16.2137 12.3811 16.1468C12.3536 16.08 12.3396 16.0083 12.3398 15.936V9.81563C12.3398 9.66976 12.3978 9.52986 12.5009 9.42672C12.6041 9.32357 12.744 9.26562 12.8898 9.26562C13.0357 9.26562 13.1756 9.32357 13.2788 9.42672C13.3819 9.52986 13.4398 9.66976 13.4398 9.81563V15.936C13.4398 16.0819 13.3819 16.2218 13.2788 16.3249C13.1756 16.4281 13.0357 16.486 12.8898 16.486Z" fill="black"/>
</svg>
