<svg width="20" height="20" viewBox="0 0 20 20" fill="none" xmlns="http://www.w3.org/2000/svg">
<path d="M10.0521 9.8487C10.0296 9.8487 10.0071 9.8487 9.98542 9.84537C9.94375 9.84037 9.88625 9.84037 9.83708 9.84537C7.42208 9.76953 5.59375 7.8737 5.59375 5.5312C5.59375 3.14703 7.53375 1.20703 9.91792 1.20703C12.3021 1.20703 14.2429 3.14703 14.2429 5.5312C14.2321 7.87453 12.4004 9.76953 10.0721 9.8487H10.0513H10.0521ZM9.91875 2.45703C8.22375 2.45703 6.84458 3.8362 6.84458 5.5312C6.84458 7.19537 8.14208 8.54287 9.79875 8.5987C9.84458 8.5887 9.95625 8.58787 10.0688 8.5987C11.7046 8.5237 12.9871 7.18287 12.9946 5.52953C12.9946 3.83703 11.6146 2.45703 9.91875 2.45703Z" fill="black"/>
<path d="M10.0575 18.9593C8.42084 18.9593 6.785 18.5426 5.53917 17.7093C4.38667 16.9426 3.75084 15.8918 3.75 14.751C3.74834 13.6085 4.38417 12.5526 5.53917 11.7793C5.53917 11.7793 5.54084 11.7793 5.54167 11.7776C8.03917 10.1193 12.0925 10.1201 14.5758 11.7776C15.7283 12.5451 16.3642 13.596 16.365 14.7368C16.3667 15.8793 15.7308 16.9351 14.5758 17.7085C13.33 18.5418 11.6942 18.9593 10.0575 18.9593ZM6.23334 12.8185C5.43667 13.3526 4.99834 14.0385 5 14.7493C5 15.4593 5.43834 16.141 6.2325 16.6701C8.3075 18.056 11.8083 18.0568 13.8808 16.6701C14.6783 16.136 15.1167 15.4501 15.115 14.7385C15.115 14.0285 14.6767 13.3468 13.8825 12.8176C11.8158 11.4393 8.315 11.4393 6.23334 12.8176V12.8185Z" fill="black"/>
</svg>
