<svg width="20" height="20" viewBox="0 0 20 20" fill="none" xmlns="http://www.w3.org/2000/svg">
<path fill-rule="evenodd" clip-rule="evenodd" d="M17.9874 10.3443C16.3736 13.2425 13.3129 15.0429 10.0016 15.0429C6.68805 15.0429 3.62746 13.2425 2.01355 10.3443C1.88926 10.1193 1.88926 9.88141 2.01355 9.65656C3.62746 6.75844 6.68805 4.95828 10.0016 4.95828C13.3129 4.95828 16.3735 6.75844 17.9874 9.65656C18.1139 9.88141 18.1139 10.1193 17.9874 10.3443ZM19.0184 9.08195C17.1966 5.8098 13.7416 3.77734 10.0016 3.77734C6.25938 3.77734 2.80441 5.8098 0.982617 9.08195C0.656836 9.66578 0.656836 10.3351 0.982617 10.9185C2.80441 14.1907 6.25938 16.2236 10.0016 16.2236C13.7416 16.2236 17.1966 14.1907 19.0184 10.9185C19.3441 10.3352 19.3441 9.66578 19.0184 9.08195ZM10.0016 12.4229C11.3368 12.4229 12.4235 11.3362 12.4235 10.0004C12.4235 8.66445 11.3368 7.57781 10.0016 7.57781C8.66414 7.57781 7.5775 8.66445 7.5775 10.0004C7.5775 11.3362 8.66418 12.4229 10.0016 12.4229ZM10.0016 6.39687C8.01258 6.39687 6.39656 8.01355 6.39656 10.0004C6.39656 11.9877 8.01262 13.6037 10.0016 13.6037C11.9884 13.6037 13.6044 11.9876 13.6044 10.0004C13.6044 8.01355 11.9884 6.39687 10.0016 6.39687Z" fill="black"/>
</svg>
