<svg width="168" height="163" viewBox="0 0 168 163" fill="none" xmlns="http://www.w3.org/2000/svg">
<g clip-path="url(#clip0_373_1785)">
<path d="M106.345 159.619H3.94416C1.97291 159.619 0.375 158.021 0.375 156.05V3.94221C0.375 1.97096 1.97291 0.373047 3.94416 0.373047H106.345C108.316 0.373047 109.914 1.97096 109.914 3.94221V156.05C109.914 158.021 108.316 159.619 106.345 159.619Z" fill="white"/>
<path d="M106.291 160H4.00224C1.79205 160 0 158.208 0 155.998V4.00224C0 1.79205 1.79205 0 4.00224 0H106.291C108.501 0 110.293 1.79205 110.293 4.00224V155.998C110.293 158.2 108.494 160 106.291 160ZM4.00224 0.76162C2.21019 0.76162 0.76162 2.21766 0.76162 4.00224V155.998C0.76162 157.79 2.21766 159.238 4.00224 159.238H106.291C108.083 159.238 109.531 157.782 109.531 155.998V4.00224C109.531 2.21019 108.075 0.76162 106.291 0.76162H4.00224Z" fill="#263238"/>
<path d="M102.176 142.251H11.0352V145.969H102.176V142.251Z" fill="#E0E0E0"/>
<path d="M102.176 147.807H11.0352V151.525H102.176V147.807Z" fill="#E0E0E0"/>
<path d="M102.18 63.9609H11.0391V129.916H102.18V63.9609Z" fill="#F5F5F5"/>
<path d="M101.715 75.3924C101.715 75.5044 81.3528 75.5865 56.2342 75.5865C31.1082 75.5865 10.7461 75.4969 10.7461 75.3924C10.7461 75.2804 31.1082 75.1982 56.2342 75.1982C81.3453 75.1982 101.715 75.2878 101.715 75.3924Z" fill="#263238"/>
<path d="M23.0379 129.908C22.9259 129.908 22.8438 115.236 22.8438 97.1435C22.8438 79.0438 22.9334 64.3789 23.0379 64.3789C23.1499 64.3789 23.232 79.0438 23.232 97.1435C23.232 115.243 23.1424 129.908 23.0379 129.908Z" fill="#263238"/>
<path d="M64.0301 130.67C63.9181 130.67 63.8359 115.826 63.8359 97.5243C63.8359 79.2156 63.9255 64.3789 64.0301 64.3789C64.1346 64.3789 64.2242 79.2156 64.2242 97.5243C64.2242 115.833 64.1346 130.67 64.0301 130.67Z" fill="#263238"/>
<path d="M84.5262 130.67C84.4142 130.67 84.332 115.826 84.332 97.5243C84.332 79.2156 84.4216 64.3789 84.5262 64.3789C84.6382 64.3789 84.7203 79.2156 84.7203 97.5243C84.7203 115.833 84.6307 130.67 84.5262 130.67Z" fill="#263238"/>
<path d="M19.5355 68.2617H14.2266V72.1594H19.5355V68.2617Z" fill="#E0E0E0"/>
<path d="M19.5355 82.1729H14.2266V86.0706H19.5355V82.1729Z" fill="#E0E0E0"/>
<path d="M19.5355 90.9834H14.2266V94.8811H19.5355V90.9834Z" fill="#E0E0E0"/>
<path d="M19.5355 98.6973H14.2266V102.595H19.5355V98.6973Z" fill="#E0E0E0"/>
<path d="M79.8534 68.2617H68.5859V72.1594H79.8534V68.2617Z" fill="#E0E0E0"/>
<path d="M78.1285 79.0742H70.3555V82.9719H78.1285V79.0742Z" fill="#E0E0E0"/>
<path d="M78.1285 90.9014H70.3555V94.7991H78.1285V90.9014Z" fill="#E0E0E0"/>
<path d="M97.7886 90.9014H90.0156V94.7991H97.7886V90.9014Z" fill="#E0E0E0"/>
<path d="M78.1285 98.7637H70.3555V102.661H78.1285V98.7637Z" fill="#E0E0E0"/>
<path d="M97.7339 98.3984H89.9609V102.296H97.7339V98.3984Z" fill="#E0E0E0"/>
<path d="M97.7339 79.335H89.9609V83.2327H97.7339V79.335Z" fill="#E0E0E0"/>
<path d="M97.728 68.2617H88.7305V72.1594H97.728V68.2617Z" fill="#E0E0E0"/>
<path d="M57.6361 68.2617H28.1719V72.1594H57.6361V68.2617Z" fill="#E0E0E0"/>
<path d="M45.6891 81.3438H28.1719V85.2415H45.6891V81.3438Z" fill="#E0E0E0"/>
<path d="M57.6361 90.6172H28.1719V94.5149H57.6361V90.6172Z" fill="#E0E0E0"/>
<path d="M43.815 98.3984H28.1719V102.296H43.815V98.3984Z" fill="#E0E0E0"/>
<path d="M102.179 129.908H84.5273V138.883H102.179V129.908Z" fill="#FF725E"/>
<path d="M97.7877 17.1211H58.6016V20.8396H97.7877V17.1211Z" fill="#E0E0E0"/>
<path d="M22.9081 28.7021H13.3281V32.4206H22.9081V28.7021Z" fill="#E0E0E0"/>
<path d="M38.6248 34.9297H13.0508V38.6482H38.6248V34.9297Z" fill="#E0E0E0"/>
<path d="M89.3106 32.416H98.8906V28.6975H89.3106V32.416Z" fill="#E0E0E0"/>
<path d="M73.5979 38.6445H99.1719V34.926H73.5979V38.6445Z" fill="#E0E0E0"/>
<path d="M38.6248 46.4219H13.0508V50.1404H38.6248V46.4219Z" fill="#FF725E"/>
<path d="M78.3336 52.8799H13.0508V56.5984H78.3336V52.8799Z" fill="#E0E0E0"/>
<path d="M13.9414 15.2471H15.6812V21.3923H13.9414V15.2471Z" fill="#263238"/>
<path d="M22.7606 15.2471V21.3923H21.327L18.6165 18.1218V21.3923H16.9141V15.2471H18.3477L21.0582 18.5176V15.2471H22.7606Z" fill="#263238"/>
<path d="M30.2049 15.2471L27.5691 21.3923H25.8592L23.2383 15.2471H25.1199L26.785 19.2493L28.4875 15.2471H30.2049Z" fill="#263238"/>
<path d="M30.1758 18.3159C30.1758 16.4716 31.6244 15.1201 33.5881 15.1201C35.5519 15.1201 37.0005 16.4716 37.0005 18.3159C37.0005 20.1603 35.5519 21.5118 33.5881 21.5118C31.6244 21.5118 30.1758 20.1603 30.1758 18.3159ZM35.2458 18.3159C35.2458 17.2556 34.514 16.5612 33.5881 16.5612C32.6548 16.5612 31.9305 17.2556 31.9305 18.3159C31.9305 19.3762 32.6622 20.0706 33.5881 20.0706C34.5215 20.0706 35.2458 19.3762 35.2458 18.3159Z" fill="#263238"/>
<path d="M37.918 15.2471H39.6577V21.3923H37.918V15.2471Z" fill="#263238"/>
<path d="M40.5781 18.3159C40.5781 16.4492 42.0118 15.1201 43.9531 15.1201C45.0881 15.1201 45.9991 15.5308 46.5964 16.2775L45.4913 17.278C45.103 16.8151 44.6326 16.5612 44.0428 16.5612C43.0347 16.5612 42.3328 17.2631 42.3328 18.3159C42.3328 19.3688 43.0347 20.0706 44.0428 20.0706C44.6326 20.0706 45.103 19.8168 45.4913 19.3538L46.5964 20.3544C45.9991 21.1011 45.0881 21.5118 43.9531 21.5118C42.0118 21.5118 40.5781 20.1827 40.5781 18.3159Z" fill="#263238"/>
<path d="M52.307 20.0405V21.3845H47.3789V15.2393H52.195V16.5833H49.0963V17.6212H51.8217V18.9204H49.0963V20.0405H52.307Z" fill="#263238"/>
<path d="M7.75141 6.08566C7.75141 7.00409 7.00472 7.75824 6.07883 7.75824C5.1604 7.75824 4.40625 7.01155 4.40625 6.08566C4.40625 5.16724 5.15294 4.41309 6.07883 4.41309C6.99725 4.42055 7.75141 5.16724 7.75141 6.08566Z" fill="#E0E0E0"/>
<path d="M12.0444 6.08566C12.0444 7.00409 11.2977 7.75824 10.3718 7.75824C9.45337 7.75824 8.69922 7.01155 8.69922 6.08566C8.69922 5.16724 9.44591 4.41309 10.3718 4.41309C11.2977 4.42055 12.0444 5.16724 12.0444 6.08566Z" fill="#E0E0E0"/>
<path d="M16.3452 6.08566C16.3452 7.00409 15.5985 7.75824 14.6726 7.75824C13.7542 7.75824 13 7.01155 13 6.08566C13 5.16724 13.7467 4.41309 14.6726 4.41309C15.5985 4.42055 16.3452 5.16724 16.3452 6.08566Z" fill="#E0E0E0"/>
</g>
<path d="M81.4648 101.4V80.8668C81.4648 79.6998 81.9284 78.5807 82.7536 77.7555C83.5787 76.9304 84.6979 76.4668 85.8648 76.4668H106.677C108.392 76.4672 110.053 77.0686 111.37 78.1667L116.09 82.1003C117.408 83.1989 119.07 83.8005 120.786 83.8001H162.132C163.298 83.8001 164.418 84.2637 165.243 85.0889C166.068 85.914 166.532 87.0332 166.532 88.2001V101.4H81.4648Z" fill="#E58B0A"/>
<path d="M88.8008 98.467V94.067C88.8008 92.9 89.2644 91.7809 90.0895 90.9557C90.9147 90.1306 92.0338 89.667 93.2008 89.667H154.801C155.968 89.667 157.087 90.1306 157.912 90.9557C158.737 91.7809 159.201 92.9 159.201 94.067V98.467H88.8008Z" fill="white"/>
<path d="M162.132 97H85.8648C83.4348 97 81.4648 98.9699 81.4648 101.4V148.333C81.4648 150.763 83.4348 152.733 85.8648 152.733H162.132C164.562 152.733 166.532 150.763 166.532 148.333V101.4C166.532 98.9699 164.562 97 162.132 97Z" fill="#FFB90B"/>
<path d="M124.002 161.533C138.582 161.533 150.402 149.714 150.402 135.133C150.402 120.553 138.582 108.733 124.002 108.733C109.421 108.733 97.6016 120.553 97.6016 135.133C97.6016 149.714 109.421 161.533 124.002 161.533Z" fill="#6400B0"/>
<path d="M122.962 142.035C123.237 142.31 123.61 142.465 123.999 142.465C124.388 142.465 124.761 142.31 125.036 142.035L130.903 136.169C131.17 135.892 131.318 135.522 131.314 135.137C131.311 134.752 131.157 134.385 130.885 134.113C130.613 133.841 130.245 133.686 129.86 133.683C129.476 133.68 129.105 133.828 128.829 134.095L125.466 137.458V119C125.466 118.611 125.311 118.238 125.036 117.963C124.761 117.688 124.388 117.533 123.999 117.533C123.61 117.533 123.237 117.688 122.962 117.963C122.687 118.238 122.532 118.611 122.532 119V137.458L119.169 134.096C118.893 133.829 118.522 133.681 118.138 133.685C117.753 133.688 117.385 133.842 117.113 134.114C116.841 134.386 116.687 134.754 116.684 135.138C116.68 135.523 116.828 135.894 117.095 136.17L122.962 142.035Z" fill="white"/>
<path d="M137.199 141C136.81 141 136.437 141.155 136.162 141.43C135.887 141.705 135.732 142.078 135.732 142.467V145.4C135.732 145.789 135.578 146.162 135.302 146.437C135.027 146.712 134.654 146.867 134.265 146.867H113.732C113.343 146.867 112.97 146.712 112.695 146.437C112.42 146.162 112.265 145.789 112.265 145.4V142.467C112.265 142.078 112.111 141.705 111.836 141.43C111.561 141.155 111.188 141 110.799 141C110.41 141 110.037 141.155 109.762 141.43C109.487 141.705 109.332 142.078 109.332 142.467V145.4C109.332 146.567 109.796 147.686 110.621 148.511C111.446 149.336 112.565 149.8 113.732 149.8H134.265C135.432 149.8 136.551 149.336 137.377 148.511C138.202 147.686 138.665 146.567 138.665 145.4V142.467C138.665 142.078 138.511 141.705 138.236 141.43C137.961 141.155 137.588 141 137.199 141Z" fill="white"/>
<defs>
<clipPath id="clip0_373_1785">
<rect width="110.293" height="160" fill="white"/>
</clipPath>
</defs>
</svg>
