<svg width="171" height="163" viewBox="0 0 171 163" fill="none" xmlns="http://www.w3.org/2000/svg">
<g clip-path="url(#clip0_373_260)">
<path d="M169.668 139.901C168.72 142.708 166.568 145.444 163.395 145.444L56.9883 145.99L61.8386 131.331C66.7555 131.347 149.085 131.548 169.34 131.55C169.755 133.778 170.595 137.112 169.668 139.901Z" fill="#19345D"/>
<path d="M170.032 137.895C160.296 143.073 148.591 142.417 137.578 141.87C101.763 140.101 89.9433 141.944 83.4263 140.52C80.2542 139.828 77.1176 138.296 75.1486 135.707C74.2004 134.467 73.581 132.899 73.3984 131.331C85.5012 131.38 150.379 131.55 169.34 131.55C169.741 133.701 170.251 135.78 170.032 137.895Z" fill="#095DA4"/>
<path d="M51.2631 29.1171H27.8524C27.1232 29.1171 26.029 29.336 25.2998 29.1171C24.1447 28.8861 24.607 26.5717 24.607 25.5435V17.3386C24.3416 10.7966 24.2803 4.55889 30.222 1.62206C30.222 1.62206 30.222 1.62206 30.2593 1.62206C33.176 0.16323 36.6413 0.236531 39.959 0.345764L50.6796 2.27841C52.9778 11.1033 53.3783 20.2927 51.2631 29.1171Z" fill="#19345D"/>
<path d="M146.55 23.3563C146.201 69.7787 145.824 131.138 145.82 131.55C145.82 131.66 67.4556 132.17 67.4556 132.17C67.3828 135.306 67.2366 138.661 65.3404 141.25C62.131 145.699 55.1664 147.814 50.3525 144.204C45.9401 140.849 46.2688 135.197 46.2688 130.42V17.704C46.561 12.7449 46.159 5.08715 41.2359 2.06026C40.0329 1.29419 38.6105 1.0029 37.3711 0.273248C39.1466 0.210487 128.067 0.235879 128.426 0.236837C133.932 0.236837 139.585 -0.747694 143.668 3.51909C148.154 8.22328 146.586 17.4486 146.55 23.3563Z" fill="#F2F8FD"/>
<path d="M145.93 113.317C145.93 113.712 145.824 131.081 145.82 131.55C145.82 131.659 67.4556 132.17 67.4556 132.17C67.3828 135.306 67.2366 138.661 65.3404 141.25C62.131 145.699 55.1664 147.814 50.3525 144.203C45.9401 140.849 46.2688 135.197 46.2688 130.42V17.7039C46.561 12.7449 46.159 5.08708 41.2359 2.06019C40.0329 1.29412 38.6105 1.00283 37.3711 0.27318C44.5915 0.017825 51.9211 0.236769 59.141 0.236769H68.9135C66.5798 3.59136 64.7933 7.56637 63.4801 11.3589C58.8123 24.5592 55.6403 38.4529 56.1505 52.4193C56.6248 66.4221 61.0008 80.5347 70.0077 91.2189C83.6824 107.373 106 113.718 127.186 114.083C133.458 114.193 139.694 113.865 145.93 113.317Z" fill="#D0DCEE"/>
<path d="M30.5145 28.4607C28.6547 28.7889 26.7584 28.8617 24.8631 28.8617C24.2791 28.169 24.6078 26.4184 24.6078 25.5435V17.3386C24.3424 10.7967 24.281 4.5589 30.2227 1.62207C30.2227 1.62207 30.2227 1.62207 30.2601 1.62207C31.7913 1.76771 33.3224 2.05948 34.7089 2.78913C37.7713 4.32079 39.7044 7.49332 40.7986 10.7751C43.8648 19.8874 39.9277 26.8318 30.5145 28.4607Z" fill="#095DA4"/>
<path d="M145.906 115.915C145.906 115.915 145.906 115.915 145.903 115.915C145.823 115.915 145.761 115.848 145.761 115.768C145.81 111.953 146.312 35.0875 146.401 23.3551C146.438 17.4694 147.981 8.2551 143.564 3.61894C139.525 -0.596575 134.065 0.381728 128.424 0.381728C63.7629 0.313697 65.5528 0.592527 65.5528 0.236084C65.5528 -0.118443 63.6398 0.158471 128.425 0.0909196C133.947 0.0909196 139.677 -0.864387 143.772 3.4182C148.294 8.16216 146.728 17.4632 146.692 23.3589C146.59 36.6997 146.129 109.717 146.052 115.772C146.052 115.851 145.986 115.915 145.906 115.915Z" fill="black"/>
<path d="M79.2372 82.7838C78.8281 81.2608 77.8996 79.9236 76.6372 78.9578C74.5196 77.2862 71.4741 76.8038 68.9483 77.7692C66.3856 78.7719 64.4539 81.2608 64.3054 83.972C64.1569 85.7178 64.7146 87.3888 65.3829 88.9861C66.8101 92.5539 68.416 95.0945 70.3233 97.5288C70.925 98.2661 71.4348 99.2933 72.276 99.4471C72.5405 99.4954 72.8912 99.4514 73.1609 99.4514C73.1988 99.4514 73.2055 99.436 73.2429 99.436L73.2199 98.4946C74.8909 96.1916 76.3766 93.7406 77.5652 91.1406C78.7179 88.6896 79.9798 85.5324 79.2372 82.7838ZM71.7716 88.4294C69.654 88.3925 67.9829 86.6467 68.0572 84.5296C68.1314 82.4494 69.8772 80.7783 71.9943 80.8526C74.0746 80.9269 75.7087 82.6727 75.6714 84.7524C75.5976 86.8695 73.8518 88.5037 71.7716 88.4294Z" fill="#E2212E"/>
<path d="M80.1592 82.7764C79.7415 81.2725 78.8221 79.92 77.5784 78.9633C75.4335 77.2989 72.3898 76.7887 69.8559 77.7852C67.3225 78.7625 65.3908 81.2505 65.2207 83.9722C65.0976 85.7002 65.6389 87.3924 66.2934 88.9954C67.5457 92.1042 69.1603 94.8624 71.2453 97.5376C71.6007 97.9899 72.6552 99.7702 73.3293 99.4027C73.4975 99.3155 73.6311 99.1536 73.7466 98.9907C74.402 98.2476 76.8018 94.791 78.4838 91.1485C79.6226 88.6754 80.9095 85.5436 80.1592 82.7764ZM72.6835 88.4406C70.5851 88.3808 68.9212 86.6383 68.9811 84.5399C69.041 82.4415 70.8011 80.7963 72.8996 80.8562C74.998 80.916 76.6432 82.658 76.5833 84.7564C76.5239 86.8549 74.7824 88.5005 72.6835 88.4406Z" fill="#F72F43"/>
<path d="M84.79 47.5124V61.0467C84.79 61.5651 84.3766 61.9872 83.8582 61.9872H61.7022C61.1838 61.9872 60.7617 61.5656 60.7617 61.0467V47.5124C60.7617 46.994 61.1833 46.5811 61.7022 46.5811H83.8582C84.377 46.5811 84.79 46.994 84.79 47.5124Z" fill="#00C6C5"/>
<path d="M84.7895 50H60.7617V52.7246H84.7895V50Z" fill="#19345D"/>
<path d="M69.0875 57.8084C69.0875 58.0929 68.8292 58.3253 68.5092 58.3253H62.6907C62.3749 58.3253 62.1172 58.0925 62.1172 57.8084C62.1172 57.5195 62.3754 57.2871 62.6907 57.2871H68.5087C68.8292 57.2866 69.0875 57.5195 69.0875 57.8084Z" fill="#F2F8FD"/>
<path d="M71.5068 59.9832C71.5068 60.2677 71.2414 60.5001 70.9117 60.5001H62.6249C62.3006 60.5001 62.0352 60.2673 62.0352 59.9832C62.0352 59.6943 62.3006 59.4619 62.6249 59.4619H70.9117C71.2414 59.4619 71.5068 59.6948 71.5068 59.9832Z" fill="#F2F8FD"/>
<path d="M81.4666 60.7215H79.5235C78.8915 60.7215 78.3789 60.2094 78.3789 59.577V57.6338C78.3789 57.0019 78.8911 56.4893 79.5235 56.4893H81.4666C82.0986 56.4893 82.6112 57.0014 82.6112 57.6338V59.577C82.6112 60.2094 82.099 60.7215 81.4666 60.7215Z" fill="#FFCA28"/>
<path d="M75.6541 60.7215H73.711C73.079 60.7215 72.5664 60.2094 72.5664 59.577V57.6338C72.5664 57.0019 73.0786 56.4893 73.711 56.4893H75.6541C76.2861 56.4893 76.7987 57.0014 76.7987 57.6338V59.577C76.7987 60.2094 76.2861 60.7215 75.6541 60.7215Z" fill="#F72F43"/>
<path d="M84.7919 50.0005V51.3625C84.2735 51.4239 83.7461 51.4502 83.2186 51.4679C81.6452 51.5206 80.0724 51.5293 78.4991 51.547C76.2406 51.5556 73.9731 51.5733 71.7142 51.582C69.6459 51.6021 65.8262 51.661 64.0243 50.6942C63.6817 50.5098 63.3651 50.2812 63.1016 50H84.7919V50.0005Z" fill="#095DA4"/>
<path d="M136.977 49.9604H93.7201C92.4227 49.9604 91.3711 48.9088 91.3711 47.6114V47.2416C91.3711 45.9442 92.4227 44.8926 93.7201 44.8926H136.977C138.274 44.8926 139.326 45.9442 139.326 47.2416V47.6114C139.326 48.9088 138.274 49.9604 136.977 49.9604Z" fill="#19345D"/>
<path d="M119.206 61.9877H94.0638C92.7664 61.9877 91.7148 60.9361 91.7148 59.6388V59.2689C91.7148 57.9715 92.7664 56.9199 94.0638 56.9199H119.206C120.503 56.9199 121.555 57.9715 121.555 59.2689V59.6388C121.555 60.9361 120.503 61.9877 119.206 61.9877Z" fill="#19345D"/>
<path d="M137.009 17.0609H92.8048C91.7695 17.0609 90.9297 16.2215 90.9297 15.1857C90.9297 14.1504 91.7691 13.3105 92.8048 13.3105H137.009C138.044 13.3105 138.884 14.1499 138.884 15.1857C138.884 16.221 138.044 17.0609 137.009 17.0609Z" fill="#19345D"/>
<path d="M119.238 25.9603H93.1486C92.1133 25.9603 91.2734 25.1209 91.2734 24.0851C91.2734 23.0498 92.1128 22.21 93.1486 22.21H119.238C120.274 22.21 121.114 23.0493 121.114 24.0851C121.114 25.1209 120.274 25.9603 119.238 25.9603Z" fill="#19345D"/>
<path d="M136.977 84.187H93.7201C92.4227 84.187 91.3711 83.1354 91.3711 81.838V81.4681C91.3711 80.1707 92.4227 79.1191 93.7201 79.1191H136.977C138.274 79.1191 139.326 80.1707 139.326 81.4681V81.838C139.326 83.1354 138.274 84.187 136.977 84.187Z" fill="#19345D"/>
<path d="M119.206 96.2133H94.0638C92.7664 96.2133 91.7148 95.1617 91.7148 93.8643V93.4945C91.7148 92.1971 92.7664 91.1455 94.0638 91.1455H119.206C120.503 91.1455 121.555 92.1971 121.555 93.4945V93.8643C121.555 95.1617 120.503 96.2133 119.206 96.2133Z" fill="#19345D"/>
<path d="M0 111.967L36.4818 103.259L77.1594 111.967L38.1136 121.144L0 111.967Z" fill="#FFCA28"/>
<path d="M38.5794 163L38.1133 121.143L77.1592 111.967V153.636L38.5794 163Z" fill="#FFD880"/>
<path d="M0 111.967V153.636L38.5797 163L38.1136 121.143L0 111.967Z" fill="#FF9F1C"/>
<path d="M64.707 136.351L60.7109 131.331L55.3796 138.616L54.9019 117.326L16.5469 108.018L26.0506 105.749L64.1757 114.929L64.707 136.351Z" fill="#E2212E"/>
<path d="M64.7072 146.772C64.5687 146.772 64.4475 146.677 64.413 146.538C64.3785 146.376 64.4787 146.215 64.6416 146.179L74.3546 143.962C74.7532 143.878 74.8668 144.462 74.4859 144.547L64.7728 146.764C64.7522 146.769 64.7283 146.772 64.7072 146.772Z" fill="#19345D"/>
<path d="M64.7072 149.198C64.5687 149.198 64.4475 149.103 64.413 148.964C64.3785 148.802 64.4787 148.641 64.6416 148.605L74.3546 146.388C74.7547 146.308 74.8658 146.889 74.4859 146.973L64.7733 149.19C64.7522 149.195 64.7283 149.198 64.7072 149.198Z" fill="#19345D"/>
<path d="M64.7055 151.624C64.3476 151.624 64.2925 151.108 64.6398 151.03L74.3529 148.814C74.7573 148.737 74.8612 149.314 74.4842 149.399L64.7711 151.615C64.7505 151.62 64.7265 151.624 64.7055 151.624Z" fill="#19345D"/>
<path d="M19.1241 136.959L3.47656 133.804V118.027L19.1241 121.183V136.959Z" fill="#F2F8FD"/>
<path d="M7.98582 132.098L4.625 131.445V121.747L7.98582 122.4V132.098Z" fill="black"/>
<path d="M10.852 132.655L9.17188 132.328V122.63L10.852 122.957V132.655Z" fill="black"/>
<path d="M15.9047 133.637L12.0312 132.885V123.187L15.9047 123.94V133.637Z" fill="black"/>
<path d="M17.9789 134.04L16.9805 133.846V124.148L17.9789 124.342V134.04Z" fill="black"/>
<path d="M64.186 114.914L54.9027 117.324L16.5625 108.005L26.0586 105.737L64.186 114.914Z" fill="#F72F43"/>
<path d="M71.6681 21.7073C75.1782 21.7073 78.0237 18.8618 78.0237 15.3517C78.0237 11.8416 75.1782 8.99609 71.6681 8.99609C68.158 8.99609 65.3125 11.8416 65.3125 15.3517C65.3125 18.8618 68.158 21.7073 71.6681 21.7073Z" fill="#095DA4"/>
<path d="M82.3015 29.5523C76.7867 35.5888 67.0904 35.7259 61.418 29.5173C62.4657 26.1647 66.7613 23.6504 71.8597 23.6504C76.9937 23.6509 81.2547 26.1651 82.3015 29.5523Z" fill="#095DA4"/>
</g>
<defs>
<clipPath id="clip0_373_260">
<rect width="170.088" height="163" fill="white"/>
</clipPath>
</defs>
</svg>
