<svg width="160" height="160" viewBox="0 0 160 160" fill="none" xmlns="http://www.w3.org/2000/svg">
<path d="M72.05 135H36.25C35.587 135 34.9511 135.263 34.4822 135.732C34.0134 136.201 33.75 136.837 33.75 137.5C33.75 138.163 34.0134 138.799 34.4822 139.268C34.9511 139.737 35.587 140 36.25 140H72.05C72.713 140 73.3489 139.737 73.8178 139.268C74.2866 138.799 74.55 138.163 74.55 137.5C74.55 136.837 74.2866 136.201 73.8178 135.732C73.3489 135.263 72.713 135 72.05 135Z" fill="#49BDFF"/>
<path d="M150.723 135H135.723C135.06 135 134.424 135.263 133.955 135.732C133.486 136.201 133.223 136.837 133.223 137.5C133.223 138.163 133.486 138.799 133.955 139.268C134.424 139.737 135.06 140 135.723 140H150.723C151.386 140 152.022 139.737 152.49 139.268C152.959 138.799 153.223 138.163 153.223 137.5C153.223 136.837 152.959 136.201 152.49 135.732C152.022 135.263 151.386 135 150.723 135Z" fill="#49BDFF"/>
<path d="M121.749 135H85.9492C85.2862 135 84.6503 135.263 84.1814 135.732C83.7126 136.201 83.4492 136.837 83.4492 137.5C83.4492 138.163 83.7126 138.799 84.1814 139.268C84.6503 139.737 85.2862 140 85.9492 140H121.749C122.412 140 123.048 139.737 123.517 139.268C123.986 138.799 124.249 138.163 124.249 137.5C124.249 136.837 123.986 136.201 123.517 135.732C123.048 135.263 122.412 135 121.749 135Z" fill="#49BDFF"/>
<path d="M22.2984 135H9.27344C8.6104 135 7.97451 135.263 7.50567 135.732C7.03683 136.201 6.77344 136.837 6.77344 137.5C6.77344 138.163 7.03683 138.799 7.50567 139.268C7.97451 139.737 8.6104 140 9.27344 140H22.2984C22.9615 140 23.5974 139.737 24.0662 139.268C24.535 138.799 24.7984 138.163 24.7984 137.5C24.7984 136.837 24.535 136.201 24.0662 135.732C23.5974 135.263 22.9615 135 22.2984 135Z" fill="#49BDFF"/>
<path d="M43.0223 101.85C42.5042 101.441 41.8455 101.254 41.1899 101.329C40.5342 101.404 39.9348 101.735 39.5223 102.25L28.7973 115.7L24.0973 110.975C23.8649 110.741 23.5884 110.555 23.2837 110.428C22.9791 110.301 22.6523 110.235 22.3223 110.235C21.9923 110.235 21.6655 110.301 21.3609 110.428C21.0562 110.555 20.7797 110.741 20.5473 110.975C20.0817 111.443 19.8203 112.077 19.8203 112.737C19.8203 113.398 20.0817 114.031 20.5473 114.5L27.2473 121.2C27.4809 121.432 27.7579 121.615 28.0625 121.739C28.3671 121.864 28.6933 121.927 29.0223 121.925H29.1473C29.4995 121.908 29.8442 121.817 30.1588 121.658C30.4733 121.498 30.7505 121.274 30.9723 121L43.4723 105.375C43.6758 105.115 43.8257 104.816 43.9133 104.498C44.0009 104.179 44.0245 103.846 43.9826 103.518C43.9408 103.191 43.8344 102.874 43.6695 102.588C43.5047 102.302 43.2847 102.051 43.0223 101.85Z" fill="#49BDFF"/>
<path d="M93.6738 101.85C93.4165 101.644 93.121 101.491 92.8042 101.399C92.4875 101.308 92.1557 101.28 91.8281 101.317C91.5004 101.354 91.1834 101.456 90.8952 101.616C90.607 101.776 90.3533 101.992 90.1488 102.25L79.4488 115.7L74.7238 110.975C74.2455 110.566 73.6304 110.352 73.0012 110.376C72.372 110.4 71.7751 110.661 71.3299 111.106C70.8847 111.552 70.6238 112.148 70.5995 112.778C70.5752 113.407 70.7892 114.022 71.1988 114.5L77.8988 121.2C78.3645 121.662 78.993 121.923 79.6488 121.925H79.7988C80.151 121.909 80.4957 121.817 80.8103 121.658C81.1248 121.499 81.402 121.274 81.6238 121L94.1238 105.375C94.3273 105.115 94.4772 104.817 94.5648 104.498C94.6524 104.18 94.676 103.847 94.6342 103.519C94.5923 103.191 94.4859 102.875 94.321 102.588C94.1562 102.302 93.9362 102.051 93.6738 101.85Z" fill="#49BDFF"/>
<path d="M36.2492 128.101H22.3242C20.9435 128.101 19.8242 129.22 19.8242 130.601V144.526C19.8242 145.906 20.9435 147.026 22.3242 147.026H36.2492C37.6299 147.026 38.7492 145.906 38.7492 144.526V130.601C38.7492 129.22 37.6299 128.101 36.2492 128.101Z" fill="#E6646E"/>
<path d="M85.9484 128.101H72.0234C70.6427 128.101 69.5234 129.22 69.5234 130.601V144.526C69.5234 145.906 70.6427 147.026 72.0234 147.026H85.9484C87.3292 147.026 88.4484 145.906 88.4484 144.526V130.601C88.4484 129.22 87.3292 128.101 85.9484 128.101Z" fill="#E6646E"/>
<path d="M135.675 128.101H121.75C120.369 128.101 119.25 129.22 119.25 130.601V144.526C119.25 145.906 120.369 147.026 121.75 147.026H135.675C137.056 147.026 138.175 145.906 138.175 144.526V130.601C138.175 129.22 137.056 128.101 135.675 128.101Z" fill="#E6646E"/>
<path d="M81.7242 53.825V53.6V53.4L81.5242 53.075L81.3742 52.9V52.7C81.224 52.5473 81.0562 52.413 80.8742 52.3L46.7492 32.8C46.4911 32.6639 46.2124 32.571 45.9242 32.525H45.6992C45.4171 32.4878 45.1314 32.4878 44.8492 32.525C44.6483 32.5738 44.4549 32.6495 44.2742 32.75L44.1242 32.875L43.9492 33.025C43.7122 33.2043 43.509 33.4244 43.3492 33.675C43.2132 33.9331 43.1203 34.2118 43.0742 34.5C43.0742 34.5 43.0742 34.65 43.0742 34.725C43.0742 34.8 43.0742 34.85 43.0742 34.925V74C43.0725 74.4405 43.1872 74.8737 43.4067 75.2556C43.6262 75.6376 43.9427 75.9547 44.3242 76.175L78.1242 95.7C78.1242 95.7 78.2492 95.7 78.2992 95.7H78.5242C78.7927 95.8155 79.0819 95.8751 79.3742 95.8751C79.6665 95.8751 79.9558 95.8155 80.2242 95.7H80.4492H80.6242C80.8062 95.5869 80.974 95.4527 81.1242 95.3C81.3187 95.0933 81.479 94.857 81.5992 94.6V94.4C81.7096 94.1212 81.7688 93.8248 81.7742 93.525V54.475C81.8004 54.2675 81.8004 54.0575 81.7742 53.85L81.7242 53.825Z" fill="#FFC350"/>
<path d="M115.548 34.7756C115.548 34.7756 115.548 34.6256 115.548 34.5506C115.502 34.2624 115.409 33.9837 115.273 33.7256C115.113 33.475 114.91 33.2548 114.673 33.0756L114.498 32.9256L114.348 32.8006C114.163 32.6718 113.961 32.5707 113.748 32.5006C113.466 32.4634 113.18 32.4634 112.898 32.5006H112.673C112.385 32.5466 112.106 32.6395 111.848 32.7756L93.6727 43.2756H93.4477L78.0727 52.1756C77.8954 52.295 77.7282 52.4288 77.5727 52.5756C77.5222 52.6363 77.4802 52.7036 77.4477 52.7756L77.2977 52.9506L77.0977 53.2756V53.5006V53.7006C77.0716 53.9081 77.0716 54.1181 77.0977 54.3256V93.5256C77.1031 93.8254 77.1624 94.1217 77.2727 94.4006V94.6006C77.3929 94.8576 77.5533 95.0939 77.7477 95.3006C77.9118 95.4476 78.0874 95.5814 78.2727 95.7006H78.4477H78.6727C78.9427 95.8112 79.231 95.8705 79.5227 95.8756C79.8141 95.8672 80.1018 95.808 80.3727 95.7006H80.5977C80.5977 95.7006 80.7227 95.7006 80.7727 95.7006L114.548 76.1756C114.929 75.9553 115.246 75.6381 115.465 75.2562C115.685 74.8743 115.799 74.4411 115.798 74.0006V35.0006C115.798 35.0006 115.548 34.8506 115.548 34.7756Z" fill="#FFD164"/>
<path d="M115.574 35.0004C115.6 35.2079 115.6 35.4179 115.574 35.6254C115.49 35.8938 115.364 36.1471 115.199 36.3754L115.049 36.5504C114.877 36.7933 114.655 36.9976 114.399 37.1504L97.2743 47.0254L96.0243 47.7504H95.7993L92.1993 50.0004L80.5493 56.7504C80.1683 56.9663 79.7372 57.0784 79.2993 57.0754C78.8614 57.0784 78.4303 56.9663 78.0493 56.7504L44.2493 37.1504C43.9934 36.9976 43.772 36.7933 43.5993 36.5504L43.4493 36.3754C43.2849 36.1471 43.1583 35.8938 43.0743 35.6254C43.0482 35.4179 43.0482 35.2079 43.0743 35.0004C43.0743 35.0004 43.0743 34.8754 43.0743 34.8004C43.0743 34.7254 43.0743 34.6504 43.0743 34.5754C43.1203 34.2872 43.2132 34.0085 43.3493 33.7504C43.493 33.4956 43.689 33.2741 43.9243 33.1004L44.0993 32.9504L44.2493 32.8254L59.7993 23.8254L62.0493 22.5254H62.2743L64.5743 21.2004L78.0493 13.4004C78.4293 13.1809 78.8605 13.0654 79.2993 13.0654C79.7381 13.0654 80.1693 13.1809 80.5493 13.4004L114.324 32.9254L114.474 33.0504L114.674 33.2004C114.897 33.387 115.091 33.6061 115.249 33.8504C115.385 34.1085 115.478 34.3872 115.524 34.6754C115.524 34.6754 115.524 34.8254 115.524 34.9004C115.524 34.9754 115.574 35.0004 115.574 35.0004Z" fill="#FFE17D"/>
<path d="M97.1992 45.6008V58.8758C97.1992 59.5388 96.9358 60.1747 96.467 60.6435C95.9981 61.1124 95.3623 61.3758 94.6992 61.3758C94.0362 61.3758 93.4003 61.1124 92.9315 60.6435C92.4626 60.1747 92.1992 59.5388 92.1992 58.8758V46.9258L59.6992 23.8008L61.9492 22.5008H62.1742L64.4742 21.1758L95.9492 43.6758C96.1065 43.772 96.2496 43.8898 96.3742 44.0258C96.8329 44.432 97.1265 44.9924 97.1992 45.6008Z" fill="#E6646E"/>
</svg>
