<svg width="249" height="143" viewBox="0 0 249 143" fill="none" xmlns="http://www.w3.org/2000/svg">
<g clip-path="url(#clip0_373_1577)">
<path d="M72.8297 126.798C72.8297 131.857 70.7844 138.295 67.7423 141.46C66.3252 142.939 62.022 142.764 58.6918 142.764C50.8836 142.764 44.5586 135.617 44.5586 126.798C44.5586 117.979 50.8883 110.832 58.6918 110.832C59.287 110.832 64.2941 110.756 64.8704 110.837C71.8567 111.81 72.8297 118.654 72.8297 126.798Z" fill="#26244A"/>
<path d="M64.8754 142.769C72.6809 142.769 79.0086 135.621 79.0086 126.803C79.0086 117.985 72.6809 110.837 64.8754 110.837C57.0698 110.837 50.7422 117.985 50.7422 126.803C50.7422 135.621 57.0698 142.769 64.8754 142.769Z" fill="#545DBF"/>
<path d="M64.8739 133.964C68.2862 133.964 71.0524 130.758 71.0524 126.803C71.0524 122.848 68.2862 119.642 64.8739 119.642C61.4615 119.642 58.6953 122.848 58.6953 126.803C58.6953 130.758 61.4615 133.964 64.8739 133.964Z" fill="#B8C1EA"/>
<path d="M87.1553 126.968H25.8516V131.734H87.1553V126.968Z" fill="#26244A"/>
<path d="M238.823 99.7832H14.1562V127.993H238.823V99.7832Z" fill="#26244A"/>
<path d="M229.408 127.028C229.408 132.088 227.363 138.526 224.32 141.691C222.903 143.169 218.6 142.994 215.27 142.994C207.462 142.994 201.137 135.848 201.137 127.028C201.137 118.209 207.466 111.063 215.27 111.063C215.865 111.063 220.872 110.987 221.448 111.067C228.435 112.04 229.408 118.88 229.408 127.028Z" fill="#26244A"/>
<path d="M221.454 142.994C229.259 142.994 235.587 135.846 235.587 127.028C235.587 118.211 229.259 111.062 221.454 111.062C213.648 111.062 207.32 118.211 207.32 127.028C207.32 135.846 213.648 142.994 221.454 142.994Z" fill="#545DBF"/>
<path d="M221.452 134.189C224.864 134.189 227.631 130.983 227.631 127.028C227.631 123.073 224.864 119.867 221.452 119.867C218.04 119.867 215.273 123.073 215.273 127.028C215.273 130.983 218.04 134.189 221.452 134.189Z" fill="#B8C1EA"/>
<path d="M244.583 85.3753C243.577 82.1632 240.648 79.9289 237.299 79.551L217.398 77.3073L206.397 55.0777C206.019 54.3172 205.504 53.6323 204.876 53.056C202.911 51.261 198.797 51.5539 197.28 51.5491C192.221 51.5302 184.961 51.5161 184.961 51.5491V60.8784V124.407C184.961 124.407 198.593 124.407 201.409 124.407C203.61 124.407 204.909 118.805 205.287 116.901C205.306 116.811 205.315 116.759 205.32 116.731C205.325 116.707 205.334 116.674 205.339 116.641C206.836 110.08 208.858 109.14 209.992 107.902C212.353 105.319 216.718 104.53 219.897 104.53C233.648 103.741 236.331 115.512 236.331 115.512L237.521 122.144H244.98V112.867V88.0158C244.989 87.1042 244.848 86.2161 244.583 85.3753Z" fill="#EF6856"/>
<path d="M244.988 91.7471H184.969V98.7192H244.988V91.7471Z" fill="#F2A441"/>
<path d="M184.969 117.846C189.532 117.846 194.1 117.846 198.663 117.846C199.315 117.846 199.967 117.846 200.619 117.846C200.774 117.846 200.916 117.709 200.911 117.553C200.859 115.706 201.19 113.798 201.672 112.027C202.669 108.375 204.719 104.979 207.997 102.962C210.505 101.417 213.439 100.817 216.358 100.765C216.518 100.761 216.655 100.633 216.651 100.472C216.646 96.2212 216.641 91.9652 216.637 87.7139C216.637 85.5268 216.632 83.3397 216.632 81.1527C216.632 80.8598 216.674 80.5339 216.575 80.2552C216.429 79.8537 216.174 79.4569 215.985 79.0743C213.675 74.464 211.36 69.8537 209.05 65.2387C208.101 63.3492 207.156 61.4597 206.207 59.5703C206.032 59.2207 205.867 58.8617 205.673 58.5263C204.657 56.7691 202.858 55.6118 200.94 55.0403C198.767 54.3931 196.363 54.6057 194.119 54.6057C191.582 54.6057 189.05 54.6057 186.514 54.6057C186.348 54.6057 186.183 54.6057 186.018 54.6057C185.64 54.6057 185.635 55.1961 186.018 55.1961C189.953 55.1961 193.887 55.1867 197.817 55.1961C200.93 55.2009 204.01 56.5188 205.451 59.3955C206.249 60.9874 207.047 62.5792 207.846 64.1711C210.217 68.8995 212.588 73.6326 214.96 78.361C215.267 78.9798 215.578 79.5939 215.885 80.2127C215.947 80.3308 216.008 80.4536 216.065 80.5717C215.994 80.4252 216.046 80.4252 216.032 80.6142C215.989 81.2424 216.032 81.8943 216.032 82.5225C216.032 83.6846 216.032 84.8419 216.037 86.0039C216.041 90.7323 216.046 95.4654 216.051 100.194C216.051 100.288 216.051 100.383 216.051 100.477C216.15 100.378 216.249 100.279 216.344 100.184C211.45 100.269 206.773 102.027 203.812 106.061C201.828 108.763 200.793 112.088 200.43 115.39C200.349 116.108 200.288 116.84 200.307 117.567C200.406 117.468 200.505 117.369 200.6 117.275C196.037 117.275 191.469 117.275 186.906 117.275C186.254 117.275 185.602 117.275 184.95 117.275C184.586 117.256 184.586 117.846 184.969 117.846Z" fill="#26244A"/>
<path d="M186.47 76.5799C186.678 71.0438 186.886 65.5076 187.094 59.9715C187.122 59.1779 187.188 58.2946 187.745 57.7514C188.27 57.2412 189.059 57.2129 189.777 57.2129C191.902 57.2129 194.023 57.2129 196.149 57.2129C197.948 57.2129 199.829 57.2318 201.416 58.1293C202.984 59.0173 204.113 60.5809 205.006 62.1964C208.27 68.0868 210.178 72.1727 212.649 77.2507C213.551 79.1071 212.294 81.313 210.315 81.3367C203.825 81.4122 195.818 81.9224 190.329 81.5398C189.333 81.4689 188.26 81.3697 187.504 80.6848C186.442 79.7259 186.413 78.0443 186.47 76.5799Z" fill="#DADEF1"/>
<path opacity="0.5" d="M210.081 71.9369L198.91 81.5071C195.768 81.5637 189.08 82.0456 187.762 80.893L206.656 65.2529L210.081 71.9369Z" fill="white"/>
<path opacity="0.5" d="M205.008 62.1961L186.453 77.9071L186.585 73.4763L203.222 59.6123L205.008 62.1961Z" fill="white"/>
<path d="M210.832 81.3694V73.4336L212.868 77.6282C212.92 77.7321 212.944 77.8455 212.944 77.9636V80.5994C212.944 81.0245 212.599 81.3694 212.174 81.3694H210.832Z" fill="#26244A"/>
<path d="M205.858 73.3257C206.604 74.0957 207.26 74.9884 207.945 75.8151C208.999 77.081 210.057 78.3517 211.11 79.6176C211.351 79.9058 211.592 80.1939 211.833 80.4868C212.074 80.7796 212.49 80.3592 212.249 80.0711C210.529 77.9974 208.81 75.9284 207.081 73.8642C206.816 73.5477 206.561 73.2076 206.278 72.91C206.013 72.636 205.593 73.0517 205.858 73.3257Z" fill="#26244A"/>
<path d="M203.094 71.8802V78.3847C203.094 79.183 203.67 79.8302 204.374 79.8302H206.599C207.307 79.8302 207.879 79.183 207.879 78.3847V71.9889C207.879 71.2142 207.336 70.5765 206.651 70.5434L204.426 70.4348C203.703 70.4017 203.094 71.0583 203.094 71.8802Z" fill="#EF6856"/>
<path d="M238.088 79.6738C238.088 79.6738 237.03 84.8604 239.118 85.8146C241.206 86.7735 244.801 86.2161 244.801 86.2161C244.801 86.2161 244.026 80.2407 238.088 79.6738Z" fill="#F2A441"/>
<path d="M245.798 127.723H237.815L233.961 110.609H245.798C247.357 110.609 248.623 111.875 248.623 113.434V124.903C248.623 126.457 247.357 127.723 245.798 127.723Z" fill="#26244A"/>
<path d="M244.987 107.322H241.473C240.325 107.322 239.395 106.391 239.395 105.243C239.395 104.096 240.325 103.165 241.473 103.165H244.987V107.322Z" fill="#DADEF1"/>
<path d="M50.6345 33.3018H3.26562V125.829H50.6345V33.3018Z" fill="#B8C1EA"/>
<path d="M50.6367 123.552V33.3301H179.739C182.999 33.3301 185.639 35.9706 185.639 39.2299V123.552H123.041V121.493C123.041 112.418 115.686 105.059 106.607 105.059H96.7113C90.1266 105.059 86.2768 109.471 85.4879 116.008L82.9419 123.547H50.6367V123.552Z" fill="#DADEF1"/>
<path d="M47.1388 40.2412H7.375V69.3012H47.1388V40.2412Z" fill="#545DBF"/>
<path d="M47.1388 69.3008H7.375V120.151H47.1388V69.3008Z" fill="#545DBF"/>
<path d="M47.1388 82.9049L7.375 69.3008H47.1388V82.9049Z" fill="#26244A"/>
<path d="M49.9098 115.99C49.9098 116.458 49.5319 116.836 49.0643 116.836C48.5966 116.836 48.2188 116.458 48.2188 115.99C48.2188 115.522 48.5966 115.145 49.0643 115.145C49.5272 115.145 49.9098 115.522 49.9098 115.99Z" fill="#F2A441"/>
<path d="M49.9098 118.494C49.9098 118.962 49.5319 119.34 49.0643 119.34C48.5966 119.34 48.2188 118.962 48.2188 118.494C48.2188 118.026 48.5966 117.648 49.0643 117.648C49.5272 117.648 49.9098 118.026 49.9098 118.494Z" fill="#F2A441"/>
<path d="M49.9098 120.997C49.9098 121.465 49.5319 121.842 49.0643 121.842C48.5966 121.842 48.2188 121.465 48.2188 120.997C48.2188 120.529 48.5966 120.151 49.0643 120.151C49.5272 120.151 49.9098 120.529 49.9098 120.997Z" fill="#F2A441"/>
<path d="M6.07388 115.99C6.07388 116.458 5.69599 116.836 5.22835 116.836C4.76071 116.836 4.38281 116.458 4.38281 115.99C4.38281 115.522 4.76071 115.145 5.22835 115.145C5.69599 115.145 6.07388 115.522 6.07388 115.99Z" fill="#F2A441"/>
<path d="M6.07388 118.494C6.07388 118.962 5.69599 119.34 5.22835 119.34C4.76071 119.34 4.38281 118.962 4.38281 118.494C4.38281 118.026 4.76071 117.648 5.22835 117.648C5.69599 117.648 6.07388 118.026 6.07388 118.494Z" fill="#F2A441"/>
<path d="M6.07388 120.997C6.07388 121.465 5.69599 121.842 5.22835 121.842C4.76071 121.842 4.38281 121.465 4.38281 120.997C4.38281 120.529 4.76071 120.151 5.22835 120.151C5.69599 120.151 6.07388 120.529 6.07388 120.997Z" fill="#F2A441"/>
<path d="M7.72873 63.2594C17.9082 63.2594 28.0877 63.2594 38.2672 63.2594C41.1628 63.2594 44.0632 63.2594 46.9588 63.2594C47.3367 63.2594 47.3414 62.6689 46.9588 62.6689C36.7793 62.6689 26.5998 62.6689 16.4203 62.6689C13.5247 62.6689 10.6243 62.6689 7.72873 62.6689C7.35084 62.6689 7.35084 63.2594 7.72873 63.2594Z" fill="#26244A"/>
<path d="M7.72873 56.5328C17.9082 56.5328 28.0877 56.5328 38.2672 56.5328C41.1628 56.5328 44.0632 56.5328 46.9588 56.5328C47.3367 56.5328 47.3414 55.9424 46.9588 55.9424C36.7793 55.9424 26.5998 55.9424 16.4203 55.9424C13.5247 55.9424 10.6243 55.9424 7.72873 55.9424C7.35084 55.9424 7.35084 56.5328 7.72873 56.5328Z" fill="#26244A"/>
<path d="M7.72873 49.8063C17.9082 49.8063 28.0877 49.8063 38.2672 49.8063C41.1628 49.8063 44.0632 49.8063 46.9588 49.8063C47.3367 49.8063 47.3414 49.2158 46.9588 49.2158C36.7793 49.2158 26.5998 49.2158 16.4203 49.2158C13.5247 49.2158 10.6243 49.2158 7.72873 49.2158C7.35084 49.2158 7.35084 49.8063 7.72873 49.8063Z" fill="#26244A"/>
<path d="M7.55649 43.5338C17.736 43.5338 27.9155 43.5338 38.095 43.5338C40.9906 43.5338 43.8909 43.5338 46.7865 43.5338C47.1644 43.5338 47.1691 42.9434 46.7865 42.9434C36.607 42.9434 26.4275 42.9434 16.248 42.9434C13.3524 42.9434 10.4521 42.9434 7.55649 42.9434C7.17388 42.9434 7.17388 43.5338 7.55649 43.5338Z" fill="#26244A"/>
<path d="M47.1382 120.151H6.02344V122.976H47.1382V120.151Z" fill="#DADEF1"/>
<path d="M114.037 126.528C114.037 131.588 111.991 138.026 108.949 141.191C107.532 142.669 103.229 142.494 99.8988 142.494C92.0906 142.494 85.7656 135.348 85.7656 126.528C85.7656 117.709 92.0953 110.563 99.8988 110.563C100.494 110.563 105.501 110.487 106.077 110.567C113.059 111.54 114.037 118.38 114.037 126.528Z" fill="#26244A"/>
<path d="M106.082 142.499C113.888 142.499 120.216 135.351 120.216 126.533C120.216 117.716 113.888 110.567 106.082 110.567C98.2769 110.567 91.9492 117.716 91.9492 126.533C91.9492 135.351 98.2769 142.499 106.082 142.499Z" fill="#545DBF"/>
<path d="M106.081 133.694C109.493 133.694 112.259 130.488 112.259 126.533C112.259 122.578 109.493 119.372 106.081 119.372C102.669 119.372 99.9023 122.578 99.9023 126.533C99.9023 130.488 102.669 133.694 106.081 133.694Z" fill="#B8C1EA"/>
<path d="M43.1243 120.119H10.7767C10.2051 120.119 9.74219 119.656 9.74219 119.085V95.778C9.74219 94.8427 10.498 94.0869 11.4333 94.0869H43.1243C43.6959 94.0869 44.1588 94.5498 44.1588 95.1214V119.089C44.1588 119.656 43.6959 120.119 43.1243 120.119Z" fill="#F2A441"/>
<path d="M32.7617 94.2518C32.7617 102.887 32.7617 111.522 32.7617 120.152C32.7617 120.53 33.3522 120.534 33.3522 120.152C33.3522 111.517 33.3522 102.882 33.3522 94.2518C33.3522 93.8692 32.7617 93.8692 32.7617 94.2518Z" fill="#26244A"/>
<path d="M23.6453 94.0869H18.8555V98.8767H23.6453V94.0869Z" fill="#DADEF1"/>
<path d="M41.7429 115.329H36.9531V120.119H41.7429V115.329Z" fill="#DADEF1"/>
<path d="M30.6407 66.9012H24.0512C23.6261 66.9012 23.2812 66.5564 23.2812 66.1313C23.2812 65.7062 23.6261 65.3613 24.0512 65.3613H30.6407C31.0659 65.3613 31.4107 65.7062 31.4107 66.1313C31.4107 66.5564 31.0659 66.9012 30.6407 66.9012Z" fill="#26244A"/>
<path d="M51.0446 67.199C58.1017 67.3218 64.0299 62.5887 68.6922 57.7564C73.9213 52.3336 77.9033 45.848 83.1938 40.4772C86.0327 37.5958 89.2779 35.0025 93.1088 33.5901C93.4631 33.4579 93.3072 32.891 92.9529 33.0186C86.354 35.456 81.5122 41.0582 77.242 46.4101C72.542 52.3006 68.1489 58.4886 61.9043 62.8816C58.6874 65.1442 55.0313 66.6794 51.0493 66.6085C50.6667 66.5991 50.6667 67.1896 51.0446 67.199Z" fill="white"/>
<path d="M106.498 33.8308C100.583 38.9087 94.8395 44.1992 89.3884 49.7731C83.9751 55.3093 78.8499 61.1241 74.1404 67.2649C71.7738 70.3494 69.5112 73.519 67.3761 76.7736C65.2882 79.9573 63.2618 83.245 62.0336 86.8728C60.9566 90.0471 60.5693 93.4387 61.3912 96.7169C62.0998 99.5417 63.6539 102.229 66.0724 103.911C68.9633 105.919 72.6902 106.032 75.9685 104.997C79.5254 103.873 82.4777 101.474 85.1087 98.904C90.7913 93.3442 95.9496 87.279 101.845 81.9318C107.579 76.7311 114.018 72.1397 121.363 69.5275C124.91 68.2616 128.651 67.468 132.426 67.3829C135.416 67.3168 138.949 67.8317 141.004 70.236C143.55 73.212 142.26 77.4066 140.593 80.4675C138.807 83.7457 136.398 86.75 133.923 89.5369C128.916 95.1675 123.078 99.981 117.13 104.582C115.633 105.739 114.126 106.887 112.619 108.03C112.322 108.257 112.615 108.772 112.917 108.54C118.883 104.01 124.863 99.4519 130.243 94.2228C132.917 91.6201 135.435 88.8567 137.688 85.8761C139.837 83.0372 142.067 79.9101 142.813 76.3626C143.47 73.2261 142.501 70.0707 139.677 68.3655C136.979 66.7405 133.607 66.6413 130.555 66.8964C123.106 67.5152 116.068 70.6187 109.927 74.766C103.366 79.1968 97.7587 84.8558 92.3171 90.562C89.6057 93.4103 86.9604 96.3485 84.1073 99.0551C81.3156 101.705 78.1083 104.072 74.2585 104.832C70.7157 105.527 67.1021 104.61 64.6694 101.87C62.5863 99.5275 61.5802 96.3107 61.5329 93.212C61.4762 89.4047 62.8981 85.706 64.6694 82.3995C66.4975 78.9843 68.7176 75.758 70.9519 72.6026C75.4961 66.1879 80.5173 60.118 85.8598 54.3551C91.1645 48.6394 96.7809 43.2214 102.605 38.0348C104.036 36.7641 105.477 35.5029 106.927 34.2559C107.201 34.0008 106.786 33.5851 106.498 33.8308Z" fill="white"/>
<path d="M128.594 122.097C133.625 113.888 141.017 107.147 149.78 103.118C151.991 102.102 154.277 101.299 156.61 100.624C159.175 99.882 161.773 99.249 164.296 98.3704C166.705 97.5344 169.034 96.4574 171.098 94.9411C173.025 93.524 174.711 91.7998 176.176 89.9104C178.004 87.5532 179.421 84.9363 180.852 82.3241C182.397 79.5088 183.904 76.6699 185.491 73.8782C185.68 73.5476 185.17 73.25 184.981 73.5806C183.578 76.0464 182.241 78.5452 180.88 81.0346C179.577 83.4295 178.311 85.8669 176.757 88.1106C175.325 90.1843 173.658 92.1021 171.717 93.7129C169.638 95.4323 167.243 96.6699 164.716 97.591C159.969 99.3293 154.966 100.203 150.314 102.234C146.043 104.096 142.066 106.613 138.509 109.617C134.409 113.085 130.89 117.218 128.084 121.795C127.886 122.126 128.396 122.419 128.594 122.097Z" fill="white"/>
<path d="M128.187 33.921C124.299 37.5724 119.585 42.5086 121.338 48.3754C122.103 50.9451 124.224 52.7307 126.52 53.9446C129.051 55.2814 131.834 56.1175 134.654 56.5521C140.691 57.4874 146.817 56.6607 152.741 55.3806C159.155 53.9919 165.518 51.9796 172.079 51.3844C175.159 51.1057 178.985 51.1766 181.456 53.3258C183.544 55.1444 184.205 58.1204 184.956 60.6664C185.065 61.0301 185.632 60.8743 185.528 60.5105C184.876 58.2904 184.29 55.8813 182.878 54.0013C181.404 52.041 179.056 51.1624 176.69 50.8412C173.742 50.4397 170.738 50.8837 167.828 51.3939C164.63 51.956 161.475 52.7212 158.324 53.4817C152.254 54.9461 146.123 56.4104 139.84 56.3726C136.869 56.3537 133.898 55.9994 131.045 55.1444C128.385 54.3509 125.561 53.1558 123.619 51.1104C121.281 48.6541 121.168 45.1492 122.386 42.1213C123.648 38.9895 126.203 36.6088 128.612 34.3461C128.881 34.0769 128.461 33.6612 128.187 33.921Z" fill="white"/>
<path d="M50.8184 111.233C53.4448 110.459 56.1325 109.835 58.8533 109.49C61.3238 109.174 63.8368 109.079 66.2837 109.632C68.4896 110.133 70.6153 111.134 72.1977 112.778C73.577 114.214 74.7107 115.896 75.7688 117.582C76.8789 119.358 77.9322 121.2 78.7589 123.128C78.91 123.477 79.4155 123.175 79.269 122.83C78.4991 121.03 77.526 119.311 76.5057 117.643C75.4334 115.9 74.2761 114.171 72.8968 112.655C69.6139 109.051 64.5406 108.324 59.9115 108.782C56.7797 109.089 53.6857 109.774 50.6672 110.662C50.2941 110.77 50.45 111.337 50.8184 111.233Z" fill="white"/>
<path d="M147.182 124.691C151.178 120.86 155.925 117.827 161.088 115.815C163.63 114.823 166.266 114.076 168.949 113.595C171.665 113.108 174.428 112.919 177.163 112.56C180.101 112.173 183.058 111.639 185.788 110.439C186.133 110.288 185.836 109.778 185.491 109.929C180.361 112.182 174.608 112.031 169.175 112.957C163.838 113.869 158.679 115.824 154.06 118.644C151.433 120.25 148.986 122.14 146.762 124.27C146.488 124.535 146.903 124.955 147.182 124.691Z" fill="white"/>
<path d="M2.08018 126.617C5.62293 126.504 9.18458 126.608 12.732 126.627C19.7514 126.66 26.7755 126.707 33.7949 126.754C41.3055 126.806 48.8161 126.858 56.3268 126.915C61.4425 126.953 66.5582 126.991 71.6787 127.014C73.9933 127.024 76.2937 127 78.5799 126.537C81.6787 125.909 84.4609 124.322 86.152 121.592C87.5691 119.305 88.0462 116.405 89.0854 114.1C90.1576 111.724 91.6928 109.645 94.1775 108.616C97.0117 107.444 100.285 107.51 103.294 107.472C106.308 107.435 109.534 107.449 112.288 108.852C113.474 109.456 114.522 110.212 115.425 111.19C116.308 112.144 116.875 113.335 117.418 114.553C117.432 114.582 117.593 114.959 117.475 114.676C117.512 114.771 117.55 114.86 117.588 114.955C117.668 115.153 117.749 115.356 117.819 115.559C118.004 116.051 118.164 116.547 118.334 117.043C118.566 117.723 118.797 118.403 119.076 119.064C119.77 120.708 120.691 122.262 121.924 123.557C123.412 125.115 125.335 126.065 127.503 126.074C128.103 126.079 128.707 126.065 129.307 126.06C135.014 126.022 140.72 125.98 146.426 125.942C153.965 125.89 161.509 125.838 169.048 125.781C173.837 125.748 178.622 125.715 183.412 125.682C183.653 125.682 183.894 125.677 184.135 125.677C186.903 125.659 186.908 121.355 184.135 121.374C180.687 121.398 177.234 121.421 173.785 121.445C166.487 121.497 159.189 121.549 151.891 121.601C145.344 121.648 138.797 121.691 132.245 121.738C130.658 121.747 129.066 121.78 127.479 121.771C127.437 121.771 127.39 121.771 127.347 121.771C127.243 121.771 127.144 121.766 127.04 121.762C126.695 121.752 127.347 121.837 127.016 121.762C126.794 121.71 126.577 121.653 126.36 121.577C126.733 121.705 126.043 121.403 125.925 121.332C125.821 121.27 125.354 120.916 125.661 121.166C125.462 121.006 125.273 120.831 125.094 120.651C124.938 120.496 124.792 120.326 124.64 120.16C124.579 120.089 124.518 120.014 124.461 119.943C124.754 120.297 124.381 119.83 124.352 119.787C123.894 119.14 123.497 118.45 123.157 117.732C123.091 117.595 123.034 117.454 122.968 117.317C122.812 117 123.157 117.85 123.034 117.477C122.992 117.345 122.93 117.208 122.883 117.076C122.038 114.742 121.339 112.272 120.006 110.156C118.33 107.496 115.76 105.583 112.864 104.426C109.747 103.183 106.261 103.117 102.949 103.169C99.7089 103.221 96.2748 103.259 93.1997 104.397C90.2427 105.489 87.8808 107.487 86.2512 110.189C84.7774 112.635 84.2153 115.385 83.143 118.002C82.7273 119.022 82.0707 120.137 81.1449 120.869C80.1435 121.658 78.9295 122.054 77.6966 122.324C76.2464 122.645 74.7585 122.711 73.2753 122.711C69.2082 122.711 65.1411 122.669 61.0788 122.64C53.8563 122.588 46.6338 122.536 39.416 122.489C31.9999 122.437 24.5837 122.385 17.1676 122.343C12.5195 122.314 7.8714 122.276 3.22803 122.295C2.84069 122.295 2.44863 122.295 2.06129 122.31C-0.68316 122.399 -0.697331 126.703 2.08018 126.617Z" fill="#B8C1EA"/>
<path d="M163.952 110.704H142.847C142.275 110.704 141.812 110.241 141.812 109.67V94.8659C141.812 93.9306 142.568 93.1748 143.504 93.1748H163.952C164.524 93.1748 164.987 93.6377 164.987 94.2093V109.67C164.987 110.246 164.524 110.704 163.952 110.704Z" fill="#F2A441"/>
<path d="M157.219 93.2879C157.219 99.1028 157.219 104.913 157.219 110.728C157.219 111.106 157.809 111.11 157.809 110.728C157.809 104.913 157.809 99.1028 157.809 93.2879C157.809 92.9053 157.219 92.9053 157.219 93.2879Z" fill="#26244A"/>
<path d="M151.175 93.1797H147.949V96.4059H151.175V93.1797Z" fill="#DADEF1"/>
<path d="M163.363 107.478H160.137V110.704H163.363V107.478Z" fill="#DADEF1"/>
<path d="M141.835 110.435L141.816 93.8546C141.816 93.453 142.142 93.1318 142.539 93.1318L164.986 93.1838" stroke="#26244A" stroke-miterlimit="10"/>
<path d="M174.42 142.679H134.538C133.967 142.679 133.504 142.216 133.504 141.644V112.636C133.504 111.701 134.26 110.945 135.195 110.945H174.42C174.992 110.945 175.455 111.408 175.455 111.98V141.644C175.45 142.216 174.987 142.679 174.42 142.679Z" fill="#F2A441"/>
<path d="M161.625 111.144C161.625 119.354 161.625 127.568 161.625 135.778C161.625 138.092 161.625 140.402 161.625 142.717C161.625 143.095 162.215 143.099 162.215 142.717C162.215 134.507 162.215 126.293 162.215 118.083C162.215 115.768 162.215 113.458 162.215 111.144C162.215 110.766 161.625 110.766 161.625 111.144Z" fill="#26244A"/>
<path d="M150.444 110.945H144.605V116.784H150.444V110.945Z" fill="#DADEF1"/>
<path d="M172.51 136.836H166.672V142.674H172.51V136.836Z" fill="#DADEF1"/>
<path d="M133.542 142.183L133.504 112.169C133.504 111.446 134.09 110.86 134.817 110.86L175.455 110.95" stroke="#26244A" stroke-miterlimit="10"/>
</g>
<g clip-path="url(#clip1_373_1577)">
<path d="M117.589 100L70.9228 99.9079C68.1965 99.9018 65.9922 97.6851 65.9922 94.9589L66.1764 4.93063C66.1764 2.19822 68.393 -0.00612745 71.1193 1.27967e-05L117.785 0.0921165C120.511 0.0982567 122.716 2.31488 122.716 5.04115L122.538 95.0755C122.532 97.7957 120.315 100.006 117.589 100Z" fill="#26244A"/>
<path d="M120.068 9.13744L68.582 9.03711L68.4352 84.3963L119.921 84.4966L120.068 9.13744Z" fill="white"/>
<path d="M100.906 5.50751L87.9745 5.354C87.692 5.34786 87.4648 5.12067 87.4648 4.83208V4.72155C87.471 4.4391 87.6982 4.21191 87.9868 4.21191L100.918 4.35928C101.201 4.36542 101.428 4.59261 101.428 4.8812V4.99172C101.422 5.28032 101.188 5.50751 100.906 5.50751Z" fill="#545DBF"/>
<path d="M99.6232 91.7109C99.5925 94.4004 97.3882 96.5494 94.6988 96.5187C92.0093 96.488 89.8602 94.2837 89.8909 91.5943C89.9217 88.9048 92.126 86.7558 94.8154 86.7865C97.5049 86.8172 99.6539 89.0215 99.6232 91.7109Z" fill="#545DBF"/>
<path d="M112.272 62.3666L77.7761 62.2991C77.0331 62.2991 76.4375 61.6973 76.4375 60.9544L76.4866 36.3688C76.4866 35.1531 77.4752 34.1768 78.6848 34.1768L112.327 34.2443C113.07 34.2443 113.666 34.846 113.666 35.589L113.617 61.028C113.617 61.771 113.015 62.3728 112.272 62.3666Z" fill="#F2A441"/>
<path d="M101.294 34.3977C101.275 43.7247 101.257 53.0518 101.238 62.3788C101.238 62.87 102.006 62.8762 102.006 62.3788C102.024 53.0518 102.043 43.7247 102.061 34.3977C102.061 33.9065 101.294 33.9065 101.294 34.3977Z" fill="#26244A"/>
<path d="M91.5044 34.2064L86.3281 34.1963L86.318 39.3725L91.4942 39.3826L91.5044 34.2064Z" fill="#DADEF1"/>
<path d="M111.024 57.1898L105.848 57.1797L105.838 62.3559L111.014 62.366L111.024 57.1898Z" fill="#DADEF1"/>
<path d="M109.306 61.6112C110.322 54.5247 105.401 47.9565 98.3145 46.9407C91.228 45.9249 84.6598 50.8461 83.644 57.9325C82.6282 65.019 87.5494 71.5872 94.6358 72.603C101.722 73.6188 108.29 68.6976 109.306 61.6112Z" fill="#5BC55C"/>
<path d="M90.2034 60.2912C91.4683 61.6974 92.7332 63.1035 93.992 64.5096C94.5323 65.1113 95.6253 65.0929 96.1656 64.5096C98.0998 62.4096 100.034 60.3097 101.974 58.2097C102.251 57.915 102.521 57.6141 102.797 57.3194C103.356 56.7115 103.399 55.7536 102.797 55.1457C102.226 54.5747 101.188 54.5317 100.623 55.1457C98.6892 57.2457 96.7551 59.3456 94.8147 61.4456C94.5384 61.7403 94.2683 62.0412 93.992 62.3359C94.7165 62.3359 95.441 62.3359 96.1656 62.3359C94.9007 60.9298 93.6358 59.5237 92.3771 58.1176C91.8244 57.5036 90.7683 57.5527 90.2034 58.1176C89.5894 58.7316 89.6508 59.6711 90.2034 60.2912Z" fill="white"/>
<path d="M79.0598 25.249C87.7421 25.249 96.4183 25.249 105.101 25.249C107.366 25.249 109.632 25.249 111.904 25.249C112.395 25.249 112.401 24.4814 111.904 24.4814C103.222 24.4814 94.5455 24.4814 85.8632 24.4814C83.5975 24.4814 81.3317 24.4814 79.0598 24.4814C78.5686 24.4814 78.5686 25.249 79.0598 25.249Z" fill="#26244A"/>
<path d="M90.3333 21.4726C93.7657 21.4726 97.1981 21.4726 100.63 21.4726C101.122 21.4726 101.128 20.7051 100.63 20.7051C97.1981 20.7051 93.7657 20.7051 90.3333 20.7051C89.842 20.7051 89.842 21.4726 90.3333 21.4726Z" fill="#26244A"/>
</g>
<defs>
<clipPath id="clip0_373_1577">
<rect width="248.625" height="110" fill="white" transform="translate(0 33)"/>
</clipPath>
<clipPath id="clip1_373_1577">
<rect width="56.7174" height="100" fill="white" transform="translate(66)"/>
</clipPath>
</defs>
</svg>
