<svg width="227" height="118" viewBox="0 0 227 118" fill="none" xmlns="http://www.w3.org/2000/svg">
<path d="M0 17.2098L71.8672 0.0546875L152 17.2098L75.0817 35.287L0 17.2098Z" fill="#FFCA28"/>
<path d="M76.0003 117.742L75.082 35.2872L152 17.21V99.2955L76.0003 117.742Z" fill="#FFD880"/>
<path d="M0 17.21V99.2955L76 117.742L75.0817 35.2872L0 17.21Z" fill="#FF9F1C"/>
<path d="M127.467 65.245L119.594 55.3561L109.092 69.7054L108.151 27.7665L32.5938 9.42876L51.3156 4.95996L126.42 23.0438L127.467 65.245Z" fill="#E2212E"/>
<path d="M127.468 85.7732C127.195 85.7732 126.956 85.5853 126.888 85.3126C126.82 84.9926 127.018 84.6755 127.339 84.6038L146.473 80.2379C147.258 80.0727 147.482 81.2222 146.731 81.3902L127.597 85.7562C127.557 85.7666 127.509 85.7732 127.468 85.7732Z" fill="#19345D"/>
<path d="M127.468 90.5511C127.195 90.5511 126.956 90.3633 126.888 90.0906C126.82 89.7706 127.018 89.4535 127.339 89.3818L146.473 85.0159C147.261 84.8582 147.48 86.0012 146.731 86.1682L127.598 90.5341C127.557 90.5445 127.509 90.5511 127.468 90.5511Z" fill="#19345D"/>
<path d="M127.468 95.3303C126.763 95.3303 126.655 94.3139 127.339 94.161L146.473 89.795C147.27 89.644 147.475 90.7813 146.732 90.9474L127.598 95.3133C127.557 95.3237 127.51 95.3303 127.468 95.3303Z" fill="#19345D"/>
<rect x="138" y="30" width="89" height="40" rx="5" fill="white"/>
<rect x="145" y="35" width="9.64286" height="30" fill="black"/>
<rect x="181.43" y="35" width="9.64286" height="30" fill="black"/>
<rect x="210.359" y="35" width="9.64286" height="30" fill="black"/>
<rect x="158.93" y="35" width="3.21429" height="30" fill="black"/>
<rect x="166.43" y="35" width="3.21429" height="30" fill="black"/>
<rect x="195.359" y="35" width="3.21429" height="30" fill="black"/>
<rect x="202.859" y="35" width="3.21429" height="30" fill="black"/>
<rect x="202.859" y="35" width="3.21429" height="30" fill="black"/>
<rect x="173.93" y="35" width="3.21429" height="30" fill="black"/>
</svg>
